<?xml version="1.0" encoding="UTF-8"?>
<svg xmlns="http://www.w3.org/2000/svg"
     xmlns:xlink="http://www.w3.org/1999/xlink"
     xmlns:gadfly="http://www.gadflyjl.org/ns"
     version="1.2"
     width="152.4mm" height="101.6mm" viewBox="0 0 152.4 101.6"
     stroke="none"
     fill="#000000"
     stroke-width="0.3"
     font-size="3.88"
>
<g class="plotroot xscalable yscalable" id="img-d5a983fb-1">
  <g font-size="3.88" font-family="'PT Sans','Helvetica Neue','Helvetica',sans-serif" fill="#564A55" stroke="#000000" stroke-opacity="0.000" id="img-d5a983fb-2">
    <text x="76.28" y="89.99" text-anchor="middle" dy="0.6em">Time</text>
  </g>
  <g class="guide xlabels" font-size="2.82" font-family="'PT Sans Caption','Helvetica Neue','Helvetica',sans-serif" fill="#6C606B" id="img-d5a983fb-3">
    <text x="19.96" y="83.32" text-anchor="middle" dy="0.6em">0</text>
    <text x="48.12" y="83.32" text-anchor="middle" dy="0.6em">100</text>
    <text x="76.28" y="83.32" text-anchor="middle" dy="0.6em">200</text>
    <text x="104.44" y="83.32" text-anchor="middle" dy="0.6em">300</text>
    <text x="132.6" y="83.32" text-anchor="middle" dy="0.6em">400</text>
  </g>
  <g class="guide colorkey" id="img-d5a983fb-4">
    <g fill="#4C404B" font-size="2.82" font-family="'PT Sans','Helvetica Neue','Helvetica',sans-serif" id="img-d5a983fb-5">
      <text x="138.42" y="29.15" dy="0.35em" id="img-d5a983fb-6" class="color_x9">x9</text>
      <text x="138.42" y="32.78" dy="0.35em" id="img-d5a983fb-7" class="color_x2">x2</text>
      <text x="138.42" y="36.4" dy="0.35em" id="img-d5a983fb-8" class="color_x5">x5</text>
      <text x="138.42" y="40.03" dy="0.35em" id="img-d5a983fb-9" class="color_x6">x6</text>
      <text x="138.42" y="43.66" dy="0.35em" id="img-d5a983fb-10" class="color_x7">x7</text>
      <text x="138.42" y="47.28" dy="0.35em" id="img-d5a983fb-11" class="color_x3">x3</text>
      <text x="138.42" y="50.91" dy="0.35em" id="img-d5a983fb-12" class="color_x8">x8</text>
      <text x="138.42" y="54.54" dy="0.35em" id="img-d5a983fb-13" class="color_x4">x4</text>
      <text x="138.42" y="58.16" dy="0.35em" id="img-d5a983fb-14" class="color_x10">x10</text>
      <text x="138.42" y="61.79" dy="0.35em" id="img-d5a983fb-15" class="color_x1">x1</text>
    </g>
    <g stroke="#000000" stroke-opacity="0.000" id="img-d5a983fb-16">
      <rect x="135.6" y="28.24" width="1.81" height="1.81" id="img-d5a983fb-17" fill="#00BFFF" class="color_x9"/>
      <rect x="135.6" y="31.87" width="1.81" height="1.81" id="img-d5a983fb-18" fill="#D4CA3A" class="color_x2"/>
      <rect x="135.6" y="35.5" width="1.81" height="1.81" id="img-d5a983fb-19" fill="#FF6DAE" class="color_x5"/>
      <rect x="135.6" y="39.12" width="1.81" height="1.81" id="img-d5a983fb-20" fill="#00B78D" class="color_x6"/>
      <rect x="135.6" y="42.75" width="1.81" height="1.81" id="img-d5a983fb-21" fill="#BEA9FF" class="color_x7"/>
      <rect x="135.6" y="46.38" width="1.81" height="1.81" id="img-d5a983fb-22" fill="#FF6765" class="color_x3"/>
      <rect x="135.6" y="50" width="1.81" height="1.81" id="img-d5a983fb-23" fill="#C6C6C6" class="color_x8"/>
      <rect x="135.6" y="53.63" width="1.81" height="1.81" id="img-d5a983fb-24" fill="#63DF75" class="color_x4"/>
      <rect x="135.6" y="57.26" width="1.81" height="1.81" id="img-d5a983fb-25" fill="#00E6D3" class="color_x10"/>
      <rect x="135.6" y="60.88" width="1.81" height="1.81" id="img-d5a983fb-26" fill="#E870DD" class="color_x1"/>
    </g>
    <g fill="#362A35" font-size="3.88" font-family="'PT Sans','Helvetica Neue','Helvetica',sans-serif" stroke="#000000" stroke-opacity="0.000" id="img-d5a983fb-27">
      <text x="135.6" y="25.33" id="img-d5a983fb-28">Column</text>
    </g>
  </g>
<g clip-path="url(#img-d5a983fb-29)">
  <g id="img-d5a983fb-30">
    <g pointer-events="visible" opacity="1" fill="#000000" fill-opacity="0.000" stroke="#000000" stroke-opacity="0.000" class="guide background" id="img-d5a983fb-31">
      <rect x="17.96" y="5" width="116.64" height="77.32" id="img-d5a983fb-32"/>
    </g>
    <g class="guide ygridlines xfixed" stroke-dasharray="0.5,0.5" stroke-width="0.2" stroke="#D0D0E0" id="img-d5a983fb-33">
      <path fill="none" d="M17.96,80.32 L 134.6 80.32" id="img-d5a983fb-34"/>
      <path fill="none" d="M17.96,65.65 L 134.6 65.65" id="img-d5a983fb-35"/>
      <path fill="none" d="M17.96,50.99 L 134.6 50.99" id="img-d5a983fb-36"/>
      <path fill="none" d="M17.96,36.33 L 134.6 36.33" id="img-d5a983fb-37"/>
      <path fill="none" d="M17.96,21.66 L 134.6 21.66" id="img-d5a983fb-38"/>
      <path fill="none" d="M17.96,7 L 134.6 7" id="img-d5a983fb-39"/>
    </g>
    <g class="guide xgridlines yfixed" stroke-dasharray="0.5,0.5" stroke-width="0.2" stroke="#D0D0E0" id="img-d5a983fb-40">
      <path fill="none" d="M19.96,5 L 19.96 82.32" id="img-d5a983fb-41"/>
      <path fill="none" d="M48.12,5 L 48.12 82.32" id="img-d5a983fb-42"/>
      <path fill="none" d="M76.28,5 L 76.28 82.32" id="img-d5a983fb-43"/>
      <path fill="none" d="M104.44,5 L 104.44 82.32" id="img-d5a983fb-44"/>
      <path fill="none" d="M132.6,5 L 132.6 82.32" id="img-d5a983fb-45"/>
    </g>
    <g class="plotpanel" id="img-d5a983fb-46">
      <g stroke-width="0.3" fill="#000000" fill-opacity="0.000" stroke-dasharray="none" id="img-d5a983fb-47">
        <path fill="none" d="M20.24,59.79 L 20.52 59.91 20.8 60.02 21.08 60.14 21.37 60.26 21.65 60.37 21.93 60.48 22.21 60.6 22.49 60.71 22.77 60.82 23.06 60.94 23.34 61.05 23.62 61.16 23.9 61.27 24.18 61.38 24.46 61.49 24.75 61.6 25.03 61.7 25.31 61.81 25.59 61.92 25.87 62.02 26.15 62.13 26.44 62.24 26.72 62.34 27 62.44 27.28 62.55 27.56 62.65 27.84 62.75 28.13 62.86 28.41 62.96 28.69 63.06 28.97 63.16 29.25 63.26 29.53 63.36 29.81 63.46 30.1 63.56 30.38 63.65 30.66 63.75 30.94 63.85 31.22 63.95 31.5 64.04 31.79 64.14 32.07 64.23 32.35 64.33 32.63 64.42 32.91 64.52 33.19 64.61 33.48 64.7 33.76 64.8 34.04 64.89 34.32 64.98 34.6 65.07 34.88 65.16 35.17 65.25 35.45 65.34 35.73 65.43 36.01 65.52 36.29 65.61 36.57 65.7 36.86 65.78 37.14 65.87 37.42 65.96 37.7 66.04 37.98 66.13 38.26 66.21 38.54 66.3 38.83 66.38 39.11 66.47 39.39 66.55 39.67 66.64 39.95 66.72 40.23 66.8 40.52 66.88 40.8 66.97 41.08 67.05 41.36 67.13 41.64 67.21 41.92 67.29 42.21 67.37 42.49 67.45 42.77 67.53 43.05 67.61 43.33 67.68 43.61 67.76 43.9 67.84 44.18 67.92 44.46 67.99 44.74 68.07 45.02 68.15 45.3 68.22 45.59 68.3 45.87 68.37 46.15 68.45 46.43 68.52 46.71 68.6 46.99 68.67 47.27 68.74 47.56 68.82 47.84 68.89 48.12 68.96 48.4 69.03 48.68 69.11 48.96 69.18 49.25 69.25 49.53 69.32 49.81 69.39 50.09 69.46 50.37 69.53 50.65 69.6 50.94 69.67 51.22 69.74 51.5 69.81 51.78 69.87 52.06 69.94 52.34 70.01 52.63 70.08 52.91 70.14 53.19 70.21 53.47 70.28 53.75 70.34 54.03 70.41 54.32 70.47 54.6 70.54 54.88 70.6 55.16 70.67 55.44 70.73 55.72 70.8 56 70.86 56.29 70.93 56.57 70.99 56.85 71.05 57.13 71.11 57.41 71.18 57.69 71.24 57.98 71.3 58.26 71.36 58.54 71.42 58.82 71.49 59.1 71.55 59.38 71.61 59.67 71.67 59.95 71.73 60.23 71.79 60.51 71.85 60.79 71.91 61.07 71.97 61.36 72.02 61.64 72.08 61.92 72.14 62.2 72.2 62.48 72.26 62.76 72.31 63.05 72.37 63.33 72.43 63.61 72.49 63.89 72.54 64.17 72.6 64.45 72.66 64.73 72.71 65.02 72.77 65.3 72.82 65.58 72.88 65.86 72.93 66.14 72.99 66.42 73.04 66.71 73.1 66.99 73.15 67.27 73.21 67.55 73.26 67.83 73.31 68.11 73.37 68.4 73.42 68.68 73.47 68.96 73.53 69.24 73.58 69.52 73.63 69.8 73.68 70.09 73.74 70.37 73.79 70.65 73.84 70.93 73.89 71.21 73.94 71.49 73.99 71.78 74.04 72.06 74.1 72.34 74.15 72.62 74.2 72.9 74.25 73.18 74.3 73.46 74.35 73.75 74.4 74.03 74.45 74.31 74.5 74.59 74.54 74.87 74.59 75.15 74.64 75.44 74.69 75.72 74.74 76 74.79 76.28 74.84 76.56 74.88 76.84 74.93 77.13 74.98 77.41 75.03 77.69 75.07 77.97 75.12 78.25 75.17 78.53 75.22 78.82 75.26 79.1 75.31 79.38 75.36 79.66 75.4 79.94 75.45 80.22 75.49 80.51 75.54 80.79 75.59 81.07 75.63 81.35 75.68 81.63 75.72 81.91 75.77 82.19 75.81 82.48 75.86 82.76 75.9 83.04 75.95 83.32 75.99 83.6 76.04 83.88 76.08 84.17 76.12 84.45 76.17 84.73 76.21 85.01 76.26 85.29 76.3 85.57 76.34 85.86 76.39 86.14 76.43 86.42 76.47 86.7 76.52 86.98 76.56 87.26 76.6 87.55 76.65 87.83 76.69 88.11 76.73 88.39 76.77 88.67 76.82 88.95 76.86 89.24 76.9 89.52 76.94 89.8 76.98 90.08 77.03 90.36 77.07 90.64 77.11 90.92 77.15 91.21 77.19 91.49 77.23 91.77 77.28 92.05 77.32 92.33 77.36 92.61 77.4 92.9 77.44 93.18 77.48 93.46 77.52 93.74 77.56 94.02 77.6 94.3 77.64 94.59 77.68 94.87 77.72 95.15 77.76 95.43 77.8 95.71 77.84 95.99 77.88 96.28 77.92 96.56 77.96 96.84 78 97.12 78.04 97.4 78.08 97.68 78.12 97.96 78.16 98.25 78.2 98.53 78.24 98.81 78.28 99.09 78.32 99.37 78.36 99.65 78.4 99.94 78.44 100.22 78.48 100.5 78.52 100.78 78.56 101.06 78.6 101.34 78.63 101.63 78.67 101.91 78.71 102.19 78.75 102.47 78.79 102.75 78.83 103.03 78.87 103.32 78.91 103.6 78.94 103.88 78.98 104.16 79.02 104.44 79.06 104.72 79.1 105.01 79.14 105.29 79.17 105.57 79.21 105.85 79.25 106.13 79.29 106.41 79.33 106.69 79.37 106.98 79.4 107.26 79.44 107.54 79.48 107.82 79.52 108.1 79.56 108.38 79.59 108.67 79.63 108.95 79.67 109.23 79.71 109.51 79.75 109.79 79.78 110.07 79.82 110.36 79.86 110.64 79.9 110.92 79.94 111.2 79.97 111.48 80.01 111.76 80.05 112.05 80.09 112.33 80.13 112.61 80.16 112.89 80.2 113.17 80.24 113.45 80.28" id="img-d5a983fb-48" stroke="#00B78D" class="geometry color_x6"/>
        <path fill="none" d="M20.24,20.23 L 20.52 20.23 20.8 20.23 21.08 20.23 21.37 20.23 21.65 20.23 21.93 20.23 22.21 20.23 22.49 20.24 22.77 21.1 23.06 21.96 23.34 22.81 23.62 23.65 23.9 24.47 24.18 25.29 24.46 26.09 24.75 26.88 25.03 27.65 25.31 28.42 25.59 29.18 25.87 29.92 26.15 30.66 26.44 31.38 26.72 32.09 27 32.79 27.28 33.49 27.56 34.17 27.84 34.84 28.13 35.5 28.41 36.15 28.69 36.8 28.97 37.43 29.25 38.06 29.53 38.67 29.81 39.28 30.1 39.88 30.38 40.46 30.66 41.04 30.94 41.62 31.22 42.18 31.5 42.74 31.79 43.28 32.07 43.82 32.35 44.35 32.63 44.88 32.91 45.39 33.19 45.9 33.48 46.4 33.76 46.9 34.04 47.38 34.32 47.86 34.6 48.34 34.88 48.8 35.17 49.26 35.45 49.71 35.73 50.16 36.01 50.6 36.29 51.03 36.57 51.46 36.86 51.88 37.14 52.29 37.42 52.7 37.7 53.1 37.98 53.5 38.26 53.89 38.54 54.28 38.83 54.66 39.11 55.03 39.39 55.4 39.67 55.76 39.95 56.12 40.23 56.47 40.52 56.82 40.8 57.16 41.08 57.5 41.36 57.83 41.64 58.16 41.92 58.48 42.21 58.8 42.49 59.11 42.77 59.42 43.05 59.73 43.33 60.03 43.61 60.32 43.9 60.61 44.18 60.9 44.46 61.19 44.74 61.46 45.02 61.74 45.3 62.01 45.59 62.28 45.87 62.54 46.15 62.8 46.43 63.05 46.71 63.31 46.99 63.55 47.27 63.8 47.56 64.04 47.84 64.28 48.12 64.51 48.4 64.74 48.68 64.97 48.96 65.19 49.25 65.41 49.53 65.63 49.81 65.85 50.09 66.06 50.37 66.26 50.65 66.47 50.94 66.67 51.22 66.87 51.5 67.07 51.78 67.26 52.06 67.45 52.34 67.64 52.63 67.82 52.91 68.01 53.19 68.19 53.47 68.36 53.75 68.54 54.03 68.71 54.32 68.88 54.6 69.05 54.88 69.21 55.16 69.38 55.44 69.54 55.72 69.69 56 69.85 56.29 70 56.57 70.15 56.85 70.3 57.13 70.45 57.41 70.59 57.69 70.73 57.98 70.87 58.26 71.01 58.54 71.15 58.82 71.28 59.1 71.42 59.38 71.55 59.67 71.67 59.95 71.8 60.23 71.93 60.51 72.05 60.79 72.17 61.07 72.29 61.36 72.41 61.64 72.52 61.92 72.64 62.2 72.75 62.48 72.86 62.76 72.97 63.05 73.08 63.33 73.19 63.61 73.29 63.89 73.39 64.17 73.5 64.45 73.6 64.73 73.7 65.02 73.79 65.3 73.89 65.58 73.98 65.86 74.08 66.14 74.17 66.42 74.26 66.71 74.35 66.99 74.44 67.27 74.53 67.55 74.61 67.83 74.7 68.11 74.78 68.4 74.86 68.68 74.94 68.96 75.02 69.24 75.1 69.52 75.18 69.8 75.25 70.09 75.33 70.37 75.4 70.65 75.48 70.93 75.55 71.21 75.62 71.49 75.69 71.78 75.76 72.06 75.83 72.34 75.89 72.62 75.96 72.9 76.02 73.18 76.09 73.46 76.15 73.75 76.21 74.03 76.28 74.31 76.34 74.59 76.4 74.87 76.46 75.15 76.51 75.44 76.57 75.72 76.63 76 76.68 76.28 76.74 76.56 76.79 76.84 76.85 77.13 76.9 77.41 76.95 77.69 77 77.97 77.05 78.25 77.1 78.53 77.15 78.82 77.2 79.1 77.25 79.38 77.3 79.66 77.34 79.94 77.39 80.22 77.43 80.51 77.48 80.79 77.52 81.07 77.57 81.35 77.61 81.63 77.65 81.91 77.69 82.19 77.73 82.48 77.77 82.76 77.81 83.04 77.85 83.32 77.89 83.6 77.93 83.88 77.97 84.17 78.01 84.45 78.04 84.73 78.08 85.01 78.11 85.29 78.15 85.57 78.19 85.86 78.22 86.14 78.25 86.42 78.29 86.7 78.32 86.98 78.35 87.26 78.39 87.55 78.42 87.83 78.45 88.11 78.48 88.39 78.51 88.67 78.54 88.95 78.57 89.24 78.6 89.52 78.63 89.8 78.66 90.08 78.69 90.36 78.72 90.64 78.74 90.92 78.77 91.21 78.8 91.49 78.82 91.77 78.85 92.05 78.88 92.33 78.9 92.61 78.93 92.9 78.95 93.18 78.98 93.46 79 93.74 79.03 94.02 79.05 94.3 79.08 94.59 79.1 94.87 79.12 95.15 79.15 95.43 79.17 95.71 79.19 95.99 79.21 96.28 79.24 96.56 79.26 96.84 79.28 97.12 79.3 97.4 79.32 97.68 79.34 97.96 79.36 98.25 79.38 98.53 79.4 98.81 79.42 99.09 79.44 99.37 79.46 99.65 79.48 99.94 79.5 100.22 79.52 100.5 79.54 100.78 79.56 101.06 79.58 101.34 79.6 101.63 79.62 101.91 79.63 102.19 79.65 102.47 79.67 102.75 79.69 103.03 79.71 103.32 79.72 103.6 79.74 103.88 79.76 104.16 79.78 104.44 79.79 104.72 79.81 105.01 79.83 105.29 79.84 105.57 79.86 105.85 79.88 106.13 79.89 106.41 79.91 106.69 79.93 106.98 79.94 107.26 79.96 107.54 79.97 107.82 79.99 108.1 80.01 108.38 80.02 108.67 80.04 108.95 80.05 109.23 80.07 109.51 80.08 109.79 80.1 110.07 80.12 110.36 80.13 110.64 80.15 110.92 80.16 111.2 80.18 111.48 80.19 111.76 80.21 112.05 80.22 112.33 80.24 112.61 80.25 112.89 80.27 113.17 80.28 113.45 80.3" id="img-d5a983fb-49" stroke="#00BFFF" class="geometry color_x9"/>
        <path fill="none" d="M20.24,42.96 L 20.52 42.96 20.8 42.96 21.08 42.96 21.37 42.96 21.65 42.96 21.93 42.96 22.21 42.96 22.49 42.96 22.77 42.96 23.06 42.96 23.34 42.96 23.62 42.96 23.9 42.96 24.18 42.96 24.46 42.96 24.75 42.96 25.03 42.96 25.31 42.96 25.59 42.96 25.87 42.96 26.15 42.96 26.44 42.96 26.72 42.96 27 42.96 27.28 42.96 27.56 42.96 27.84 42.96 28.13 42.96 28.41 42.96 28.69 42.96 28.97 42.96 29.25 42.96 29.53 42.96 29.81 42.96 30.1 42.96 30.38 42.96 30.66 42.96 30.94 43.05 31.22 43.41 31.5 43.76 31.79 44.11 32.07 44.45 32.35 44.79 32.63 45.13 32.91 45.46 33.19 45.8 33.48 46.13 33.76 46.45 34.04 46.77 34.32 47.09 34.6 47.41 34.88 47.72 35.17 48.03 35.45 48.34 35.73 48.65 36.01 48.95 36.29 49.25 36.57 49.54 36.86 49.84 37.14 50.13 37.42 50.42 37.7 50.7 37.98 50.99 38.26 51.27 38.54 51.54 38.83 51.82 39.11 52.09 39.39 52.36 39.67 52.63 39.95 52.89 40.23 53.16 40.52 53.42 40.8 53.67 41.08 53.93 41.36 54.18 41.64 54.43 41.92 54.68 42.21 54.93 42.49 55.17 42.77 55.41 43.05 55.65 43.33 55.89 43.61 56.12 43.9 56.35 44.18 56.58 44.46 56.81 44.74 57.04 45.02 57.26 45.3 57.48 45.59 57.7 45.87 57.92 46.15 58.14 46.43 58.35 46.71 58.56 46.99 58.77 47.27 58.98 47.56 59.19 47.84 59.39 48.12 59.59 48.4 59.79 48.68 59.99 48.96 60.19 49.25 60.38 49.53 60.58 49.81 60.77 50.09 60.96 50.37 61.15 50.65 61.33 50.94 61.52 51.22 61.7 51.5 61.88 51.78 62.06 52.06 62.24 52.34 62.41 52.63 62.59 52.91 62.76 53.19 62.93 53.47 63.1 53.75 63.27 54.03 63.44 54.32 63.6 54.6 63.77 54.88 63.93 55.16 64.09 55.44 64.25 55.72 64.41 56 64.56 56.29 64.72 56.57 64.87 56.85 65.02 57.13 65.17 57.41 65.32 57.69 65.47 57.98 65.62 58.26 65.76 58.54 65.91 58.82 66.05 59.1 66.19 59.38 66.33 59.67 66.47 59.95 66.61 60.23 66.74 60.51 66.88 60.79 67.01 61.07 67.15 61.36 67.28 61.64 67.41 61.92 67.54 62.2 67.67 62.48 67.79 62.76 67.92 63.05 68.04 63.33 68.17 63.61 68.29 63.89 68.41 64.17 68.53 64.45 68.65 64.73 68.77 65.02 68.89 65.3 69 65.58 69.12 65.86 69.23 66.14 69.35 66.42 69.46 66.71 69.57 66.99 69.68 67.27 69.79 67.55 69.9 67.83 70.01 68.11 70.11 68.4 70.22 68.68 70.32 68.96 70.43 69.24 70.53 69.52 70.63 69.8 70.73 70.09 70.83 70.37 70.93 70.65 71.03 70.93 71.13 71.21 71.23 71.49 71.32 71.78 71.42 72.06 71.51 72.34 71.61 72.62 71.7 72.9 71.79 73.18 71.88 73.46 71.97 73.75 72.06 74.03 72.15 74.31 72.24 74.59 72.33 74.87 72.42 75.15 72.5 75.44 72.59 75.72 72.67 76 72.76 76.28 72.84 76.56 72.92 76.84 73.01 77.13 73.09 77.41 73.17 77.69 73.25 77.97 73.33 78.25 73.41 78.53 73.49 78.82 73.56 79.1 73.64 79.38 73.72 79.66 73.79 79.94 73.87 80.22 73.94 80.51 74.02 80.79 74.09 81.07 74.17 81.35 74.24 81.63 74.31 81.91 74.38 82.19 74.45 82.48 74.52 82.76 74.59 83.04 74.66 83.32 74.73 83.6 74.8 83.88 74.87 84.17 74.94 84.45 75 84.73 75.07 85.01 75.13 85.29 75.2 85.57 75.26 85.86 75.33 86.14 75.39 86.42 75.46 86.7 75.52 86.98 75.58 87.26 75.65 87.55 75.71 87.83 75.77 88.11 75.83 88.39 75.89 88.67 75.95 88.95 76.01 89.24 76.07 89.52 76.13 89.8 76.19 90.08 76.25 90.36 76.31 90.64 76.36 90.92 76.42 91.21 76.48 91.49 76.53 91.77 76.59 92.05 76.65 92.33 76.7 92.61 76.76 92.9 76.81 93.18 76.87 93.46 76.92 93.74 76.98 94.02 77.03 94.3 77.08 94.59 77.14 94.87 77.19 95.15 77.24 95.43 77.29 95.71 77.35 95.99 77.4 96.28 77.45 96.56 77.5 96.84 77.55 97.12 77.6 97.4 77.65 97.68 77.7 97.96 77.75 98.25 77.8 98.53 77.85 98.81 77.9 99.09 77.95 99.37 78 99.65 78.05 99.94 78.1 100.22 78.15 100.5 78.19 100.78 78.24 101.06 78.29 101.34 78.34 101.63 78.39 101.91 78.43 102.19 78.48 102.47 78.53 102.75 78.57 103.03 78.62 103.32 78.67 103.6 78.71 103.88 78.76 104.16 78.8 104.44 78.85 104.72 78.9 105.01 78.94 105.29 78.99 105.57 79.03 105.85 79.08 106.13 79.12 106.41 79.17 106.69 79.21 106.98 79.26 107.26 79.3 107.54 79.35 107.82 79.39 108.1 79.44 108.38 79.48 108.67 79.53 108.95 79.57 109.23 79.61 109.51 79.66 109.79 79.7 110.07 79.75 110.36 79.79 110.64 79.83 110.92 79.88 111.2 79.92 111.48 79.97 111.76 80.01 112.05 80.05 112.33 80.1 112.61 80.14 112.89 80.18 113.17 80.23 113.45 80.27" id="img-d5a983fb-50" stroke="#00E6D3" class="geometry color_x10"/>
        <path fill="none" d="M20.24,58.77 L 20.52 58.89 20.8 59.01 21.08 59.12 21.37 59.23 21.65 59.35 21.93 59.46 22.21 59.57 22.49 59.68 22.77 59.8 23.06 59.91 23.34 60.02 23.62 60.13 23.9 60.24 24.18 60.35 24.46 60.45 24.75 60.56 25.03 60.67 25.31 60.78 25.59 60.88 25.87 60.99 26.15 61.09 26.44 61.2 26.72 61.3 27 61.41 27.28 61.51 27.56 61.61 27.84 61.72 28.13 61.82 28.41 61.92 28.69 62.02 28.97 62.12 29.25 62.22 29.53 62.32 29.81 62.42 30.1 62.52 30.38 62.62 30.66 62.72 30.94 62.81 31.22 62.91 31.5 63.01 31.79 63.11 32.07 63.2 32.35 63.3 32.63 63.39 32.91 63.49 33.19 63.58 33.48 63.67 33.76 63.77 34.04 63.86 34.32 63.95 34.6 64.04 34.88 64.14 35.17 64.23 35.45 64.32 35.73 64.41 36.01 64.5 36.29 64.59 36.57 64.68 36.86 64.77 37.14 64.86 37.42 64.94 37.7 65.03 37.98 65.12 38.26 65.21 38.54 65.29 38.83 65.38 39.11 65.46 39.39 65.55 39.67 65.63 39.95 65.72 40.23 65.8 40.52 65.89 40.8 65.97 41.08 66.05 41.36 66.14 41.64 66.22 41.92 66.3 42.21 66.38 42.49 66.47 42.77 66.55 43.05 66.63 43.33 66.71 43.61 66.79 43.9 66.87 44.18 66.95 44.46 67.03 44.74 67.1 45.02 67.18 45.3 67.26 45.59 67.34 45.87 67.42 46.15 67.49 46.43 67.57 46.71 67.65 46.99 67.72 47.27 67.8 47.56 67.87 47.84 67.95 48.12 68.02 48.4 68.1 48.68 68.17 48.96 68.25 49.25 68.32 49.53 68.39 49.81 68.47 50.09 68.54 50.37 68.61 50.65 68.69 50.94 68.76 51.22 68.83 51.5 68.9 51.78 68.97 52.06 69.04 52.34 69.11 52.63 69.18 52.91 69.25 53.19 69.32 53.47 69.39 53.75 69.46 54.03 69.53 54.32 69.6 54.6 69.67 54.88 69.73 55.16 69.8 55.44 69.87 55.72 69.94 56 70 56.29 70.07 56.57 70.14 56.85 70.2 57.13 70.27 57.41 70.33 57.69 70.4 57.98 70.47 58.26 70.53 58.54 70.6 58.82 70.66 59.1 70.72 59.38 70.79 59.67 70.85 59.95 70.92 60.23 70.98 60.51 71.04 60.79 71.1 61.07 71.17 61.36 71.23 61.64 71.29 61.92 71.35 62.2 71.41 62.48 71.48 62.76 71.54 63.05 71.6 63.33 71.66 63.61 71.72 63.89 71.78 64.17 71.84 64.45 71.9 64.73 71.96 65.02 72.02 65.3 72.08 65.58 72.14 65.86 72.2 66.14 72.26 66.42 72.31 66.71 72.37 66.99 72.43 67.27 72.49 67.55 72.55 67.83 72.6 68.11 72.66 68.4 72.72 68.68 72.77 68.96 72.83 69.24 72.89 69.52 72.94 69.8 73 70.09 73.06 70.37 73.11 70.65 73.17 70.93 73.22 71.21 73.28 71.49 73.33 71.78 73.39 72.06 73.44 72.34 73.5 72.62 73.55 72.9 73.61 73.18 73.66 73.46 73.71 73.75 73.77 74.03 73.82 74.31 73.87 74.59 73.93 74.87 73.98 75.15 74.03 75.44 74.09 75.72 74.14 76 74.19 76.28 74.24 76.56 74.3 76.84 74.35 77.13 74.4 77.41 74.45 77.69 74.5 77.97 74.55 78.25 74.61 78.53 74.66 78.82 74.71 79.1 74.76 79.38 74.81 79.66 74.86 79.94 74.91 80.22 74.96 80.51 75.01 80.79 75.06 81.07 75.11 81.35 75.16 81.63 75.21 81.91 75.26 82.19 75.31 82.48 75.36 82.76 75.41 83.04 75.46 83.32 75.5 83.6 75.55 83.88 75.6 84.17 75.65 84.45 75.7 84.73 75.75 85.01 75.8 85.29 75.84 85.57 75.89 85.86 75.94 86.14 75.99 86.42 76.03 86.7 76.08 86.98 76.13 87.26 76.18 87.55 76.22 87.83 76.27 88.11 76.32 88.39 76.36 88.67 76.41 88.95 76.46 89.24 76.5 89.52 76.55 89.8 76.6 90.08 76.64 90.36 76.69 90.64 76.74 90.92 76.78 91.21 76.83 91.49 76.87 91.77 76.92 92.05 76.97 92.33 77.01 92.61 77.06 92.9 77.1 93.18 77.15 93.46 77.19 93.74 77.24 94.02 77.28 94.3 77.33 94.59 77.37 94.87 77.42 95.15 77.46 95.43 77.51 95.71 77.55 95.99 77.6 96.28 77.64 96.56 77.69 96.84 77.73 97.12 77.77 97.4 77.82 97.68 77.86 97.96 77.91 98.25 77.95 98.53 78 98.81 78.04 99.09 78.08 99.37 78.13 99.65 78.17 99.94 78.21 100.22 78.26 100.5 78.3 100.78 78.35 101.06 78.39 101.34 78.43 101.63 78.48 101.91 78.52 102.19 78.56 102.47 78.61 102.75 78.65 103.03 78.69 103.32 78.74 103.6 78.78 103.88 78.82 104.16 78.87 104.44 78.91 104.72 78.95 105.01 78.99 105.29 79.04 105.57 79.08 105.85 79.12 106.13 79.17 106.41 79.21 106.69 79.25 106.98 79.29 107.26 79.34 107.54 79.38 107.82 79.42 108.1 79.46 108.38 79.51 108.67 79.55 108.95 79.59 109.23 79.64 109.51 79.68 109.79 79.72 110.07 79.76 110.36 79.81 110.64 79.85 110.92 79.89 111.2 79.93 111.48 79.98 111.76 80.02 112.05 80.06 112.33 80.1 112.61 80.15 112.89 80.19 113.17 80.23 113.45 80.27" id="img-d5a983fb-51" stroke="#63DF75" class="geometry color_x4"/>
        <path fill="none" d="M20.24,63.19 L 20.52 63.28 20.8 63.37 21.08 63.46 21.37 63.55 21.65 63.64 21.93 63.73 22.21 63.81 22.49 63.9 22.77 63.99 23.06 64.07 23.34 64.16 23.62 64.24 23.9 64.33 24.18 64.41 24.46 64.5 24.75 64.58 25.03 64.66 25.31 64.75 25.59 64.83 25.87 64.91 26.15 64.99 26.44 65.07 26.72 65.16 27 65.24 27.28 65.32 27.56 65.4 27.84 65.48 28.13 65.56 28.41 65.64 28.69 65.71 28.97 65.79 29.25 65.87 29.53 65.95 29.81 66.03 30.1 66.1 30.38 66.18 30.66 66.26 30.94 66.33 31.22 66.41 31.5 66.48 31.79 66.56 32.07 66.63 32.35 66.71 32.63 66.78 32.91 66.86 33.19 66.93 33.48 67 33.76 67.08 34.04 67.15 34.32 67.22 34.6 67.29 34.88 67.36 35.17 67.44 35.45 67.51 35.73 67.58 36.01 67.65 36.29 67.72 36.57 67.79 36.86 67.86 37.14 67.93 37.42 68 37.7 68.06 37.98 68.13 38.26 68.2 38.54 68.27 38.83 68.34 39.11 68.4 39.39 68.47 39.67 68.54 39.95 68.6 40.23 68.67 40.52 68.74 40.8 68.8 41.08 68.87 41.36 68.93 41.64 69 41.92 69.06 42.21 69.13 42.49 69.19 42.77 69.25 43.05 69.32 43.33 69.38 43.61 69.44 43.9 69.51 44.18 69.57 44.46 69.63 44.74 69.69 45.02 69.76 45.3 69.82 45.59 69.88 45.87 69.94 46.15 70 46.43 70.06 46.71 70.12 46.99 70.18 47.27 70.24 47.56 70.3 47.84 70.36 48.12 70.42 48.4 70.48 48.68 70.54 48.96 70.6 49.25 70.65 49.53 70.71 49.81 70.77 50.09 70.83 50.37 70.88 50.65 70.94 50.94 71 51.22 71.06 51.5 71.11 51.78 71.17 52.06 71.22 52.34 71.28 52.63 71.34 52.91 71.39 53.19 71.45 53.47 71.5 53.75 71.56 54.03 71.61 54.32 71.67 54.6 71.72 54.88 71.77 55.16 71.83 55.44 71.88 55.72 71.93 56 71.99 56.29 72.04 56.57 72.09 56.85 72.15 57.13 72.2 57.41 72.25 57.69 72.3 57.98 72.35 58.26 72.41 58.54 72.46 58.82 72.51 59.1 72.56 59.38 72.61 59.67 72.66 59.95 72.71 60.23 72.76 60.51 72.81 60.79 72.86 61.07 72.91 61.36 72.96 61.64 73.01 61.92 73.06 62.2 73.11 62.48 73.16 62.76 73.21 63.05 73.26 63.33 73.31 63.61 73.35 63.89 73.4 64.17 73.45 64.45 73.5 64.73 73.55 65.02 73.59 65.3 73.64 65.58 73.69 65.86 73.74 66.14 73.78 66.42 73.83 66.71 73.88 66.99 73.92 67.27 73.97 67.55 74.02 67.83 74.06 68.11 74.11 68.4 74.15 68.68 74.2 68.96 74.24 69.24 74.29 69.52 74.33 69.8 74.38 70.09 74.42 70.37 74.47 70.65 74.51 70.93 74.56 71.21 74.6 71.49 74.65 71.78 74.69 72.06 74.74 72.34 74.78 72.62 74.82 72.9 74.87 73.18 74.91 73.46 74.95 73.75 75 74.03 75.04 74.31 75.08 74.59 75.13 74.87 75.17 75.15 75.21 75.44 75.25 75.72 75.3 76 75.34 76.28 75.38 76.56 75.42 76.84 75.46 77.13 75.51 77.41 75.55 77.69 75.59 77.97 75.63 78.25 75.67 78.53 75.71 78.82 75.75 79.1 75.8 79.38 75.84 79.66 75.88 79.94 75.92 80.22 75.96 80.51 76 80.79 76.04 81.07 76.08 81.35 76.12 81.63 76.16 81.91 76.2 82.19 76.24 82.48 76.28 82.76 76.32 83.04 76.36 83.32 76.4 83.6 76.44 83.88 76.48 84.17 76.52 84.45 76.56 84.73 76.59 85.01 76.63 85.29 76.67 85.57 76.71 85.86 76.75 86.14 76.79 86.42 76.83 86.7 76.87 86.98 76.9 87.26 76.94 87.55 76.98 87.83 77.02 88.11 77.06 88.39 77.1 88.67 77.13 88.95 77.17 89.24 77.21 89.52 77.25 89.8 77.28 90.08 77.32 90.36 77.36 90.64 77.4 90.92 77.43 91.21 77.47 91.49 77.51 91.77 77.55 92.05 77.58 92.33 77.62 92.61 77.66 92.9 77.69 93.18 77.73 93.46 77.77 93.74 77.81 94.02 77.84 94.3 77.88 94.59 77.91 94.87 77.95 95.15 77.99 95.43 78.02 95.71 78.06 95.99 78.1 96.28 78.13 96.56 78.17 96.84 78.21 97.12 78.24 97.4 78.28 97.68 78.31 97.96 78.35 98.25 78.39 98.53 78.42 98.81 78.46 99.09 78.49 99.37 78.53 99.65 78.56 99.94 78.6 100.22 78.64 100.5 78.67 100.78 78.71 101.06 78.74 101.34 78.78 101.63 78.81 101.91 78.85 102.19 78.88 102.47 78.92 102.75 78.95 103.03 78.99 103.32 79.03 103.6 79.06 103.88 79.1 104.16 79.13 104.44 79.17 104.72 79.2 105.01 79.24 105.29 79.27 105.57 79.31 105.85 79.34 106.13 79.38 106.41 79.41 106.69 79.45 106.98 79.48 107.26 79.52 107.54 79.55 107.82 79.59 108.1 79.62 108.38 79.66 108.67 79.69 108.95 79.72 109.23 79.76 109.51 79.79 109.79 79.83 110.07 79.86 110.36 79.9 110.64 79.93 110.92 79.97 111.2 80 111.48 80.04 111.76 80.07 112.05 80.11 112.33 80.14 112.61 80.18 112.89 80.21 113.17 80.25 113.45 80.28" id="img-d5a983fb-52" stroke="#BEA9FF" class="geometry color_x7"/>
        <path fill="none" d="M20.24,32.96 L 20.52 33.38 20.8 33.79 21.08 34.21 21.37 34.61 21.65 35.02 21.93 35.42 22.21 35.82 22.49 36.21 22.77 36.6 23.06 36.99 23.34 37.38 23.62 37.76 23.9 38.14 24.18 38.51 24.46 38.88 24.75 39.25 25.03 39.61 25.31 39.97 25.59 40.33 25.87 40.69 26.15 41.04 26.44 41.39 26.72 41.73 27 42.08 27.28 42.42 27.56 42.75 27.84 43.09 28.13 43.42 28.41 43.75 28.69 44.07 28.97 44.39 29.25 44.71 29.53 45.03 29.81 45.34 30.1 45.66 30.38 45.96 30.66 46.27 30.94 46.57 31.22 46.87 31.5 47.17 31.79 47.47 32.07 47.76 32.35 48.05 32.63 48.34 32.91 48.62 33.19 48.91 33.48 49.19 33.76 49.46 34.04 49.74 34.32 50.01 34.6 50.28 34.88 50.55 35.17 50.82 35.45 51.08 35.73 51.34 36.01 51.6 36.29 51.86 36.57 52.11 36.86 52.36 37.14 52.62 37.42 52.86 37.7 53.11 37.98 53.35 38.26 53.59 38.54 53.83 38.83 54.07 39.11 54.31 39.39 54.54 39.67 54.77 39.95 55 40.23 55.23 40.52 55.45 40.8 55.68 41.08 55.9 41.36 56.12 41.64 56.34 41.92 56.55 42.21 56.77 42.49 56.98 42.77 57.19 43.05 57.4 43.33 57.6 43.61 57.81 43.9 58.01 44.18 58.21 44.46 58.41 44.74 58.61 45.02 58.81 45.3 59 45.59 59.2 45.87 59.39 46.15 59.58 46.43 59.76 46.71 59.95 46.99 60.14 47.27 60.32 47.56 60.5 47.84 60.68 48.12 60.86 48.4 61.04 48.68 61.21 48.96 61.39 49.25 61.56 49.53 61.73 49.81 61.9 50.09 62.07 50.37 62.23 50.65 62.4 50.94 62.56 51.22 62.73 51.5 62.89 51.78 63.05 52.06 63.21 52.34 63.36 52.63 63.52 52.91 63.67 53.19 63.83 53.47 63.98 53.75 64.13 54.03 64.28 54.32 64.43 54.6 64.57 54.88 64.72 55.16 64.86 55.44 65.01 55.72 65.15 56 65.29 56.29 65.43 56.57 65.57 56.85 65.7 57.13 65.84 57.41 65.98 57.69 66.11 57.98 66.24 58.26 66.37 58.54 66.5 58.82 66.63 59.1 66.76 59.38 66.89 59.67 67.02 59.95 67.14 60.23 67.27 60.51 67.39 60.79 67.51 61.07 67.63 61.36 67.75 61.64 67.87 61.92 67.99 62.2 68.11 62.48 68.22 62.76 68.34 63.05 68.45 63.33 68.57 63.61 68.68 63.89 68.79 64.17 68.9 64.45 69.01 64.73 69.12 65.02 69.23 65.3 69.34 65.58 69.44 65.86 69.55 66.14 69.65 66.42 69.76 66.71 69.86 66.99 69.96 67.27 70.06 67.55 70.17 67.83 70.27 68.11 70.36 68.4 70.46 68.68 70.56 68.96 70.66 69.24 70.75 69.52 70.85 69.8 70.94 70.09 71.04 70.37 71.13 70.65 71.22 70.93 71.31 71.21 71.4 71.49 71.49 71.78 71.58 72.06 71.67 72.34 71.76 72.62 71.85 72.9 71.94 73.18 72.02 73.46 72.11 73.75 72.19 74.03 72.28 74.31 72.36 74.59 72.44 74.87 72.52 75.15 72.61 75.44 72.69 75.72 72.77 76 72.85 76.28 72.93 76.56 73.01 76.84 73.08 77.13 73.16 77.41 73.24 77.69 73.32 77.97 73.39 78.25 73.47 78.53 73.54 78.82 73.62 79.1 73.69 79.38 73.76 79.66 73.84 79.94 73.91 80.22 73.98 80.51 74.05 80.79 74.12 81.07 74.19 81.35 74.26 81.63 74.33 81.91 74.4 82.19 74.47 82.48 74.54 82.76 74.61 83.04 74.67 83.32 74.74 83.6 74.81 83.88 74.87 84.17 74.94 84.45 75 84.73 75.07 85.01 75.13 85.29 75.19 85.57 75.26 85.86 75.32 86.14 75.38 86.42 75.45 86.7 75.51 86.98 75.57 87.26 75.63 87.55 75.69 87.83 75.75 88.11 75.81 88.39 75.87 88.67 75.93 88.95 75.99 89.24 76.05 89.52 76.11 89.8 76.16 90.08 76.22 90.36 76.28 90.64 76.33 90.92 76.39 91.21 76.45 91.49 76.5 91.77 76.56 92.05 76.61 92.33 76.67 92.61 76.72 92.9 76.78 93.18 76.83 93.46 76.89 93.74 76.94 94.02 76.99 94.3 77.05 94.59 77.1 94.87 77.15 95.15 77.21 95.43 77.26 95.71 77.31 95.99 77.36 96.28 77.41 96.56 77.46 96.84 77.52 97.12 77.57 97.4 77.62 97.68 77.67 97.96 77.72 98.25 77.77 98.53 77.82 98.81 77.87 99.09 77.92 99.37 77.97 99.65 78.02 99.94 78.06 100.22 78.11 100.5 78.16 100.78 78.21 101.06 78.26 101.34 78.31 101.63 78.35 101.91 78.4 102.19 78.45 102.47 78.5 102.75 78.54 103.03 78.59 103.32 78.64 103.6 78.68 103.88 78.73 104.16 78.78 104.44 78.82 104.72 78.87 105.01 78.92 105.29 78.96 105.57 79.01 105.85 79.06 106.13 79.1 106.41 79.15 106.69 79.19 106.98 79.24 107.26 79.28 107.54 79.33 107.82 79.37 108.1 79.42 108.38 79.46 108.67 79.51 108.95 79.56 109.23 79.6 109.51 79.65 109.79 79.69 110.07 79.73 110.36 79.78 110.64 79.82 110.92 79.87 111.2 79.91 111.48 79.96 111.76 80 112.05 80.05 112.33 80.09 112.61 80.14 112.89 80.18 113.17 80.23 113.45 80.27" id="img-d5a983fb-53" stroke="#C6C6C6" class="geometry color_x8"/>
        <path fill="none" d="M20.24,49.31 L 20.52 49.31 20.8 49.31 21.08 49.31 21.37 49.31 21.65 49.31 21.93 49.31 22.21 49.46 22.49 49.67 22.77 49.89 23.06 50.1 23.34 50.32 23.62 50.53 23.9 50.74 24.18 50.95 24.46 51.16 24.75 51.36 25.03 51.57 25.31 51.77 25.59 51.97 25.87 52.17 26.15 52.37 26.44 52.57 26.72 52.77 27 52.96 27.28 53.16 27.56 53.35 27.84 53.54 28.13 53.73 28.41 53.92 28.69 54.11 28.97 54.29 29.25 54.48 29.53 54.66 29.81 54.84 30.1 55.02 30.38 55.2 30.66 55.38 30.94 55.56 31.22 55.74 31.5 55.91 31.79 56.09 32.07 56.26 32.35 56.43 32.63 56.6 32.91 56.77 33.19 56.94 33.48 57.11 33.76 57.28 34.04 57.44 34.32 57.6 34.6 57.77 34.88 57.93 35.17 58.09 35.45 58.25 35.73 58.41 36.01 58.57 36.29 58.72 36.57 58.88 36.86 59.03 37.14 59.19 37.42 59.34 37.7 59.49 37.98 59.64 38.26 59.79 38.54 59.94 38.83 60.09 39.11 60.23 39.39 60.38 39.67 60.52 39.95 60.67 40.23 60.81 40.52 60.95 40.8 61.09 41.08 61.23 41.36 61.37 41.64 61.51 41.92 61.65 42.21 61.79 42.49 61.92 42.77 62.06 43.05 62.19 43.33 62.32 43.61 62.45 43.9 62.59 44.18 62.72 44.46 62.85 44.74 62.97 45.02 63.1 45.3 63.23 45.59 63.36 45.87 63.48 46.15 63.61 46.43 63.73 46.71 63.85 46.99 63.97 47.27 64.1 47.56 64.22 47.84 64.34 48.12 64.46 48.4 64.57 48.68 64.69 48.96 64.81 49.25 64.93 49.53 65.04 49.81 65.16 50.09 65.27 50.37 65.38 50.65 65.5 50.94 65.61 51.22 65.72 51.5 65.83 51.78 65.94 52.06 66.05 52.34 66.16 52.63 66.26 52.91 66.37 53.19 66.48 53.47 66.58 53.75 66.69 54.03 66.79 54.32 66.9 54.6 67 54.88 67.1 55.16 67.2 55.44 67.3 55.72 67.4 56 67.5 56.29 67.6 56.57 67.7 56.85 67.8 57.13 67.9 57.41 68 57.69 68.09 57.98 68.19 58.26 68.28 58.54 68.38 58.82 68.47 59.1 68.56 59.38 68.66 59.67 68.75 59.95 68.84 60.23 68.93 60.51 69.02 60.79 69.11 61.07 69.2 61.36 69.29 61.64 69.38 61.92 69.47 62.2 69.56 62.48 69.64 62.76 69.73 63.05 69.82 63.33 69.9 63.61 69.99 63.89 70.07 64.17 70.16 64.45 70.24 64.73 70.32 65.02 70.4 65.3 70.49 65.58 70.57 65.86 70.65 66.14 70.73 66.42 70.81 66.71 70.89 66.99 70.97 67.27 71.05 67.55 71.13 67.83 71.2 68.11 71.28 68.4 71.36 68.68 71.44 68.96 71.51 69.24 71.59 69.52 71.66 69.8 71.74 70.09 71.81 70.37 71.89 70.65 71.96 70.93 72.03 71.21 72.11 71.49 72.18 71.78 72.25 72.06 72.32 72.34 72.4 72.62 72.47 72.9 72.54 73.18 72.61 73.46 72.68 73.75 72.75 74.03 72.82 74.31 72.89 74.59 72.95 74.87 73.02 75.15 73.09 75.44 73.16 75.72 73.22 76 73.29 76.28 73.36 76.56 73.42 76.84 73.49 77.13 73.56 77.41 73.62 77.69 73.69 77.97 73.75 78.25 73.81 78.53 73.88 78.82 73.94 79.1 74 79.38 74.07 79.66 74.13 79.94 74.19 80.22 74.25 80.51 74.32 80.79 74.38 81.07 74.44 81.35 74.5 81.63 74.56 81.91 74.62 82.19 74.68 82.48 74.74 82.76 74.8 83.04 74.86 83.32 74.92 83.6 74.98 83.88 75.04 84.17 75.09 84.45 75.15 84.73 75.21 85.01 75.27 85.29 75.33 85.57 75.38 85.86 75.44 86.14 75.5 86.42 75.55 86.7 75.61 86.98 75.66 87.26 75.72 87.55 75.78 87.83 75.83 88.11 75.89 88.39 75.94 88.67 76 88.95 76.05 89.24 76.1 89.52 76.16 89.8 76.21 90.08 76.27 90.36 76.32 90.64 76.37 90.92 76.42 91.21 76.48 91.49 76.53 91.77 76.58 92.05 76.64 92.33 76.69 92.61 76.74 92.9 76.79 93.18 76.84 93.46 76.89 93.74 76.95 94.02 77 94.3 77.05 94.59 77.1 94.87 77.15 95.15 77.2 95.43 77.25 95.71 77.3 95.99 77.35 96.28 77.4 96.56 77.45 96.84 77.5 97.12 77.55 97.4 77.6 97.68 77.65 97.96 77.7 98.25 77.75 98.53 77.79 98.81 77.84 99.09 77.89 99.37 77.94 99.65 77.99 99.94 78.04 100.22 78.09 100.5 78.13 100.78 78.18 101.06 78.23 101.34 78.28 101.63 78.33 101.91 78.37 102.19 78.42 102.47 78.47 102.75 78.51 103.03 78.56 103.32 78.61 103.6 78.66 103.88 78.7 104.16 78.75 104.44 78.8 104.72 78.84 105.01 78.89 105.29 78.94 105.57 78.98 105.85 79.03 106.13 79.08 106.41 79.12 106.69 79.17 106.98 79.22 107.26 79.26 107.54 79.31 107.82 79.35 108.1 79.4 108.38 79.45 108.67 79.49 108.95 79.54 109.23 79.58 109.51 79.63 109.79 79.68 110.07 79.72 110.36 79.77 110.64 79.81 110.92 79.86 111.2 79.9 111.48 79.95 111.76 80 112.05 80.04 112.33 80.09 112.61 80.13 112.89 80.18 113.17 80.22 113.45 80.27" id="img-d5a983fb-54" stroke="#D4CA3A" class="geometry color_x2"/>
        <path fill="none" d="M20.24,40.27 L 20.52 40.68 20.8 41.09 21.08 41.49 21.37 41.88 21.65 42.27 21.93 42.66 22.21 43.05 22.49 43.43 22.77 43.8 23.06 44.17 23.34 44.54 23.62 44.91 23.9 45.27 24.18 45.63 24.46 45.98 24.75 46.33 25.03 46.68 25.31 47.02 25.59 47.36 25.87 47.7 26.15 48.03 26.44 48.36 26.72 48.68 27 49.01 27.28 49.33 27.56 49.64 27.84 49.96 28.13 50.27 28.41 50.57 28.69 50.88 28.97 51.18 29.25 51.47 29.53 51.77 29.81 52.06 30.1 52.35 30.38 52.63 30.66 52.92 30.94 53.2 31.22 53.47 31.5 53.75 31.79 54.02 32.07 54.29 32.35 54.55 32.63 54.82 32.91 55.08 33.19 55.34 33.48 55.59 33.76 55.85 34.04 56.1 34.32 56.34 34.6 56.59 34.88 56.83 35.17 57.07 35.45 57.31 35.73 57.55 36.01 57.78 36.29 58.01 36.57 58.24 36.86 58.46 37.14 58.69 37.42 58.91 37.7 59.13 37.98 59.35 38.26 59.56 38.54 59.77 38.83 59.98 39.11 60.19 39.39 60.4 39.67 60.6 39.95 60.81 40.23 61.01 40.52 61.2 40.8 61.4 41.08 61.6 41.36 61.79 41.64 61.98 41.92 62.17 42.21 62.35 42.49 62.54 42.77 62.72 43.05 62.9 43.33 63.08 43.61 63.26 43.9 63.43 44.18 63.61 44.46 63.78 44.74 63.95 45.02 64.12 45.3 64.29 45.59 64.45 45.87 64.61 46.15 64.78 46.43 64.94 46.71 65.1 46.99 65.25 47.27 65.41 47.56 65.56 47.84 65.71 48.12 65.87 48.4 66.02 48.68 66.16 48.96 66.31 49.25 66.45 49.53 66.6 49.81 66.74 50.09 66.88 50.37 67.02 50.65 67.16 50.94 67.3 51.22 67.43 51.5 67.56 51.78 67.7 52.06 67.83 52.34 67.96 52.63 68.09 52.91 68.21 53.19 68.34 53.47 68.46 53.75 68.59 54.03 68.71 54.32 68.83 54.6 68.95 54.88 69.07 55.16 69.19 55.44 69.3 55.72 69.42 56 69.53 56.29 69.65 56.57 69.76 56.85 69.87 57.13 69.98 57.41 70.09 57.69 70.2 57.98 70.3 58.26 70.41 58.54 70.51 58.82 70.62 59.1 70.72 59.38 70.82 59.67 70.92 59.95 71.02 60.23 71.12 60.51 71.21 60.79 71.31 61.07 71.41 61.36 71.5 61.64 71.6 61.92 71.69 62.2 71.78 62.48 71.87 62.76 71.96 63.05 72.05 63.33 72.14 63.61 72.23 63.89 72.31 64.17 72.4 64.45 72.48 64.73 72.57 65.02 72.65 65.3 72.73 65.58 72.82 65.86 72.9 66.14 72.98 66.42 73.06 66.71 73.14 66.99 73.21 67.27 73.29 67.55 73.37 67.83 73.44 68.11 73.52 68.4 73.59 68.68 73.67 68.96 73.74 69.24 73.81 69.52 73.88 69.8 73.95 70.09 74.02 70.37 74.09 70.65 74.16 70.93 74.23 71.21 74.3 71.49 74.37 71.78 74.43 72.06 74.5 72.34 74.56 72.62 74.63 72.9 74.69 73.18 74.76 73.46 74.82 73.75 74.88 74.03 74.94 74.31 75 74.59 75.06 74.87 75.12 75.15 75.18 75.44 75.24 75.72 75.3 76 75.36 76.28 75.42 76.56 75.47 76.84 75.53 77.13 75.59 77.41 75.64 77.69 75.7 77.97 75.75 78.25 75.8 78.53 75.86 78.82 75.91 79.1 75.96 79.38 76.02 79.66 76.07 79.94 76.12 80.22 76.17 80.51 76.22 80.79 76.27 81.07 76.32 81.35 76.37 81.63 76.42 81.91 76.46 82.19 76.51 82.48 76.56 82.76 76.61 83.04 76.65 83.32 76.7 83.6 76.75 83.88 76.79 84.17 76.84 84.45 76.88 84.73 76.93 85.01 76.97 85.29 77.01 85.57 77.06 85.86 77.1 86.14 77.14 86.42 77.18 86.7 77.23 86.98 77.27 87.26 77.31 87.55 77.35 87.83 77.39 88.11 77.43 88.39 77.47 88.67 77.51 88.95 77.55 89.24 77.59 89.52 77.63 89.8 77.67 90.08 77.71 90.36 77.75 90.64 77.78 90.92 77.82 91.21 77.86 91.49 77.9 91.77 77.93 92.05 77.97 92.33 78.01 92.61 78.04 92.9 78.08 93.18 78.11 93.46 78.15 93.74 78.18 94.02 78.22 94.3 78.25 94.59 78.29 94.87 78.32 95.15 78.36 95.43 78.39 95.71 78.42 95.99 78.46 96.28 78.49 96.56 78.52 96.84 78.56 97.12 78.59 97.4 78.62 97.68 78.66 97.96 78.69 98.25 78.72 98.53 78.75 98.81 78.78 99.09 78.81 99.37 78.85 99.65 78.88 99.94 78.91 100.22 78.94 100.5 78.97 100.78 79 101.06 79.03 101.34 79.06 101.63 79.09 101.91 79.12 102.19 79.15 102.47 79.18 102.75 79.21 103.03 79.24 103.32 79.27 103.6 79.3 103.88 79.33 104.16 79.36 104.44 79.39 104.72 79.42 105.01 79.45 105.29 79.48 105.57 79.5 105.85 79.53 106.13 79.56 106.41 79.59 106.69 79.62 106.98 79.65 107.26 79.68 107.54 79.7 107.82 79.73 108.1 79.76 108.38 79.79 108.67 79.82 108.95 79.84 109.23 79.87 109.51 79.9 109.79 79.93 110.07 79.96 110.36 79.98 110.64 80.01 110.92 80.04 111.2 80.07 111.48 80.09 111.76 80.12 112.05 80.15 112.33 80.18 112.61 80.2 112.89 80.23 113.17 80.26 113.45 80.29" id="img-d5a983fb-55" stroke="#E870DD" class="geometry color_x1"/>
        <path fill="none" d="M20.24,37.68 L 20.52 38.03 20.8 38.38 21.08 38.73 21.37 39.07 21.65 39.41 21.93 39.75 22.21 40.08 22.49 40.41 22.77 40.74 23.06 41.07 23.34 41.39 23.62 41.71 23.9 42.03 24.18 42.35 24.46 42.66 24.75 42.97 25.03 43.28 25.31 43.58 25.59 43.89 25.87 44.19 26.15 44.49 26.44 44.78 26.72 45.08 27 45.37 27.28 45.66 27.56 45.94 27.84 46.23 28.13 46.51 28.41 46.79 28.69 47.07 28.97 47.34 29.25 47.61 29.53 47.88 29.81 48.15 30.1 48.42 30.38 48.68 30.66 48.95 30.94 49.21 31.22 49.46 31.5 49.72 31.79 49.97 32.07 50.23 32.35 50.48 32.63 50.72 32.91 50.97 33.19 51.21 33.48 51.46 33.76 51.7 34.04 51.93 34.32 52.17 34.6 52.4 34.88 52.64 35.17 52.87 35.45 53.1 35.73 53.32 36.01 53.55 36.29 53.77 36.57 53.99 36.86 54.21 37.14 54.43 37.42 54.65 37.7 54.86 37.98 55.07 38.26 55.28 38.54 55.49 38.83 55.7 39.11 55.91 39.39 56.11 39.67 56.31 39.95 56.52 40.23 56.72 40.52 56.91 40.8 57.11 41.08 57.3 41.36 57.5 41.64 57.69 41.92 57.88 42.21 58.07 42.49 58.26 42.77 58.44 43.05 58.63 43.33 58.81 43.61 58.99 43.9 59.17 44.18 59.35 44.46 59.53 44.74 59.7 45.02 59.88 45.3 60.05 45.59 60.22 45.87 60.39 46.15 60.56 46.43 60.73 46.71 60.89 46.99 61.06 47.27 61.22 47.56 61.39 47.84 61.55 48.12 61.71 48.4 61.87 48.68 62.02 48.96 62.18 49.25 62.33 49.53 62.49 49.81 62.64 50.09 62.79 50.37 62.94 50.65 63.09 50.94 63.24 51.22 63.39 51.5 63.53 51.78 63.68 52.06 63.82 52.34 63.96 52.63 64.1 52.91 64.24 53.19 64.38 53.47 64.52 53.75 64.66 54.03 64.79 54.32 64.93 54.6 65.06 54.88 65.19 55.16 65.33 55.44 65.46 55.72 65.59 56 65.72 56.29 65.84 56.57 65.97 56.85 66.1 57.13 66.22 57.41 66.34 57.69 66.47 57.98 66.59 58.26 66.71 58.54 66.83 58.82 66.95 59.1 67.07 59.38 67.19 59.67 67.3 59.95 67.42 60.23 67.53 60.51 67.65 60.79 67.76 61.07 67.87 61.36 67.98 61.64 68.1 61.92 68.21 62.2 68.31 62.48 68.42 62.76 68.53 63.05 68.64 63.33 68.74 63.61 68.85 63.89 68.95 64.17 69.06 64.45 69.16 64.73 69.26 65.02 69.36 65.3 69.46 65.58 69.56 65.86 69.66 66.14 69.76 66.42 69.86 66.71 69.95 66.99 70.05 67.27 70.15 67.55 70.24 67.83 70.34 68.11 70.43 68.4 70.52 68.68 70.61 68.96 70.71 69.24 70.8 69.52 70.89 69.8 70.98 70.09 71.07 70.37 71.15 70.65 71.24 70.93 71.33 71.21 71.42 71.49 71.5 71.78 71.59 72.06 71.67 72.34 71.76 72.62 71.84 72.9 71.92 73.18 72.01 73.46 72.09 73.75 72.17 74.03 72.25 74.31 72.33 74.59 72.41 74.87 72.49 75.15 72.57 75.44 72.65 75.72 72.72 76 72.8 76.28 72.88 76.56 72.95 76.84 73.03 77.13 73.11 77.41 73.18 77.69 73.25 77.97 73.33 78.25 73.4 78.53 73.47 78.82 73.55 79.1 73.62 79.38 73.69 79.66 73.76 79.94 73.83 80.22 73.9 80.51 73.97 80.79 74.04 81.07 74.11 81.35 74.18 81.63 74.25 81.91 74.31 82.19 74.38 82.48 74.45 82.76 74.52 83.04 74.58 83.32 74.65 83.6 74.71 83.88 74.78 84.17 74.84 84.45 74.91 84.73 74.97 85.01 75.03 85.29 75.1 85.57 75.16 85.86 75.22 86.14 75.28 86.42 75.35 86.7 75.41 86.98 75.47 87.26 75.53 87.55 75.59 87.83 75.65 88.11 75.71 88.39 75.77 88.67 75.83 88.95 75.89 89.24 75.95 89.52 76 89.8 76.06 90.08 76.12 90.36 76.18 90.64 76.23 90.92 76.29 91.21 76.35 91.49 76.4 91.77 76.46 92.05 76.52 92.33 76.57 92.61 76.63 92.9 76.68 93.18 76.74 93.46 76.79 93.74 76.85 94.02 76.9 94.3 76.95 94.59 77.01 94.87 77.06 95.15 77.11 95.43 77.17 95.71 77.22 95.99 77.27 96.28 77.33 96.56 77.38 96.84 77.43 97.12 77.48 97.4 77.53 97.68 77.58 97.96 77.64 98.25 77.69 98.53 77.74 98.81 77.79 99.09 77.84 99.37 77.89 99.65 77.94 99.94 77.99 100.22 78.04 100.5 78.09 100.78 78.14 101.06 78.19 101.34 78.24 101.63 78.29 101.91 78.34 102.19 78.38 102.47 78.43 102.75 78.48 103.03 78.53 103.32 78.58 103.6 78.63 103.88 78.68 104.16 78.72 104.44 78.77 104.72 78.82 105.01 78.87 105.29 78.91 105.57 78.96 105.85 79.01 106.13 79.06 106.41 79.1 106.69 79.15 106.98 79.2 107.26 79.25 107.54 79.29 107.82 79.34 108.1 79.39 108.38 79.43 108.67 79.48 108.95 79.53 109.23 79.57 109.51 79.62 109.79 79.67 110.07 79.71 110.36 79.76 110.64 79.81 110.92 79.85 111.2 79.9 111.48 79.95 111.76 79.99 112.05 80.04 112.33 80.08 112.61 80.13 112.89 80.18 113.17 80.22 113.45 80.27" id="img-d5a983fb-56" stroke="#FF6765" class="geometry color_x3"/>
        <path fill="none" d="M20.24,40.37 L 20.52 40.67 20.8 40.97 21.08 41.26 21.37 41.56 21.65 41.85 21.93 42.14 22.21 42.43 22.49 42.72 22.77 43 23.06 43.28 23.34 43.56 23.62 43.84 23.9 44.11 24.18 44.39 24.46 44.66 24.75 44.93 25.03 45.2 25.31 45.46 25.59 45.73 25.87 45.99 26.15 46.25 26.44 46.51 26.72 46.76 27 47.02 27.28 47.27 27.56 47.52 27.84 47.77 28.13 48.02 28.41 48.26 28.69 48.51 28.97 48.75 29.25 48.99 29.53 49.23 29.81 49.46 30.1 49.7 30.38 49.93 30.66 50.16 30.94 50.39 31.22 50.62 31.5 50.85 31.79 51.07 32.07 51.29 32.35 51.52 32.63 51.74 32.91 51.95 33.19 52.17 33.48 52.39 33.76 52.6 34.04 52.81 34.32 53.02 34.6 53.23 34.88 53.44 35.17 53.64 35.45 53.85 35.73 54.05 36.01 54.25 36.29 54.45 36.57 54.65 36.86 54.85 37.14 55.05 37.42 55.24 37.7 55.43 37.98 55.62 38.26 55.81 38.54 56 38.83 56.19 39.11 56.38 39.39 56.56 39.67 56.75 39.95 56.93 40.23 57.11 40.52 57.29 40.8 57.47 41.08 57.64 41.36 57.82 41.64 57.99 41.92 58.17 42.21 58.34 42.49 58.51 42.77 58.68 43.05 58.85 43.33 59.02 43.61 59.18 43.9 59.35 44.18 59.51 44.46 59.67 44.74 59.84 45.02 60 45.3 60.15 45.59 60.31 45.87 60.47 46.15 60.63 46.43 60.78 46.71 60.93 46.99 61.09 47.27 61.24 47.56 61.39 47.84 61.54 48.12 61.69 48.4 61.83 48.68 61.98 48.96 62.13 49.25 62.27 49.53 62.41 49.81 62.56 50.09 62.7 50.37 62.84 50.65 62.98 50.94 63.11 51.22 63.25 51.5 63.39 51.78 63.52 52.06 63.66 52.34 63.79 52.63 63.92 52.91 64.06 53.19 64.19 53.47 64.32 53.75 64.45 54.03 64.57 54.32 64.7 54.6 64.83 54.88 64.95 55.16 65.08 55.44 65.2 55.72 65.33 56 65.45 56.29 65.57 56.57 65.69 56.85 65.81 57.13 65.93 57.41 66.05 57.69 66.16 57.98 66.28 58.26 66.4 58.54 66.51 58.82 66.63 59.1 66.74 59.38 66.85 59.67 66.96 59.95 67.08 60.23 67.19 60.51 67.3 60.79 67.41 61.07 67.51 61.36 67.62 61.64 67.73 61.92 67.83 62.2 67.94 62.48 68.04 62.76 68.15 63.05 68.25 63.33 68.36 63.61 68.46 63.89 68.56 64.17 68.66 64.45 68.76 64.73 68.86 65.02 68.96 65.3 69.06 65.58 69.15 65.86 69.25 66.14 69.35 66.42 69.44 66.71 69.54 66.99 69.63 67.27 69.73 67.55 69.82 67.83 69.91 68.11 70.01 68.4 70.1 68.68 70.19 68.96 70.28 69.24 70.37 69.52 70.46 69.8 70.55 70.09 70.64 70.37 70.72 70.65 70.81 70.93 70.9 71.21 70.98 71.49 71.07 71.78 71.15 72.06 71.24 72.34 71.32 72.62 71.41 72.9 71.49 73.18 71.57 73.46 71.66 73.75 71.74 74.03 71.82 74.31 71.9 74.59 71.98 74.87 72.06 75.15 72.14 75.44 72.22 75.72 72.3 76 72.37 76.28 72.45 76.56 72.53 76.84 72.61 77.13 72.68 77.41 72.76 77.69 72.83 77.97 72.91 78.25 72.98 78.53 73.06 78.82 73.13 79.1 73.2 79.38 73.28 79.66 73.35 79.94 73.42 80.22 73.49 80.51 73.57 80.79 73.64 81.07 73.71 81.35 73.78 81.63 73.85 81.91 73.92 82.19 73.99 82.48 74.06 82.76 74.12 83.04 74.19 83.32 74.26 83.6 74.33 83.88 74.39 84.17 74.46 84.45 74.53 84.73 74.59 85.01 74.66 85.29 74.73 85.57 74.79 85.86 74.86 86.14 74.92 86.42 74.98 86.7 75.05 86.98 75.11 87.26 75.18 87.55 75.24 87.83 75.3 88.11 75.36 88.39 75.43 88.67 75.49 88.95 75.55 89.24 75.61 89.52 75.67 89.8 75.74 90.08 75.8 90.36 75.86 90.64 75.92 90.92 75.98 91.21 76.04 91.49 76.1 91.77 76.16 92.05 76.21 92.33 76.27 92.61 76.33 92.9 76.39 93.18 76.45 93.46 76.51 93.74 76.56 94.02 76.62 94.3 76.68 94.59 76.74 94.87 76.79 95.15 76.85 95.43 76.91 95.71 76.96 95.99 77.02 96.28 77.08 96.56 77.13 96.84 77.19 97.12 77.24 97.4 77.3 97.68 77.35 97.96 77.41 98.25 77.46 98.53 77.52 98.81 77.57 99.09 77.63 99.37 77.68 99.65 77.73 99.94 77.79 100.22 77.84 100.5 77.9 100.78 77.95 101.06 78 101.34 78.06 101.63 78.11 101.91 78.16 102.19 78.21 102.47 78.27 102.75 78.32 103.03 78.37 103.32 78.43 103.6 78.48 103.88 78.53 104.16 78.58 104.44 78.63 104.72 78.69 105.01 78.74 105.29 78.79 105.57 78.84 105.85 78.89 106.13 78.94 106.41 79 106.69 79.05 106.98 79.1 107.26 79.15 107.54 79.2 107.82 79.25 108.1 79.3 108.38 79.35 108.67 79.4 108.95 79.46 109.23 79.51 109.51 79.56 109.79 79.61 110.07 79.66 110.36 79.71 110.64 79.76 110.92 79.81 111.2 79.86 111.48 79.91 111.76 79.96 112.05 80.01 112.33 80.06 112.61 80.11 112.89 80.16 113.17 80.21 113.45 80.26" id="img-d5a983fb-57" stroke="#FF6DAE" class="geometry color_x5"/>
      </g>
    </g>
  </g>
</g>
  <g class="guide ylabels" font-size="2.82" font-family="'PT Sans Caption','Helvetica Neue','Helvetica',sans-serif" fill="#6C606B" id="img-d5a983fb-58">
    <text x="16.96" y="80.32" text-anchor="end" dy="0.35em" id="img-d5a983fb-59">0</text>
    <text x="16.96" y="65.65" text-anchor="end" dy="0.35em" id="img-d5a983fb-60">5</text>
    <text x="16.96" y="50.99" text-anchor="end" dy="0.35em" id="img-d5a983fb-61">10</text>
    <text x="16.96" y="36.33" text-anchor="end" dy="0.35em" id="img-d5a983fb-62">15</text>
    <text x="16.96" y="21.66" text-anchor="end" dy="0.35em" id="img-d5a983fb-63">20</text>
    <text x="16.96" y="7" text-anchor="end" dy="0.35em" id="img-d5a983fb-64">25</text>
  </g>
  <g font-size="3.88" font-family="'PT Sans','Helvetica Neue','Helvetica',sans-serif" fill="#564A55" stroke="#000000" stroke-opacity="0.000" id="img-d5a983fb-65">
    <text x="8.81" y="41.66" text-anchor="middle" dy="0.35em" transform="rotate(-90, 8.81, 43.66)" id="img-d5a983fb-66">PEV Current</text>
  </g>
</g>
<defs>
  <clipPath id="img-d5a983fb-29">
  <path d="M17.96,5 L 134.6 5 134.6 82.32 17.96 82.32" />
</clipPath>
</defs>
</svg>
