<?xml version="1.0" encoding="UTF-8"?>
<svg xmlns="http://www.w3.org/2000/svg"
     xmlns:xlink="http://www.w3.org/1999/xlink"
     xmlns:gadfly="http://www.gadflyjl.org/ns"
     version="1.2"
     width="152.4mm" height="101.6mm" viewBox="0 0 152.4 101.6"
     stroke="none"
     fill="#000000"
     stroke-width="0.3"
     font-size="3.88"
>
<g class="plotroot xscalable yscalable" id="img-08a23731-1">
  <g font-size="3.88" font-family="'PT Sans','Helvetica Neue','Helvetica',sans-serif" fill="#564A55" stroke="#000000" stroke-opacity="0.000" id="img-08a23731-2">
    <text x="76.62" y="89.99" text-anchor="middle" dy="0.6em">Time</text>
  </g>
  <g class="guide xlabels" font-size="2.82" font-family="'PT Sans Caption','Helvetica Neue','Helvetica',sans-serif" fill="#6C606B" id="img-08a23731-3">
    <text x="20.63" y="83.32" text-anchor="middle" dy="0.6em">0</text>
    <text x="48.62" y="83.32" text-anchor="middle" dy="0.6em">100</text>
    <text x="76.62" y="83.32" text-anchor="middle" dy="0.6em">200</text>
    <text x="104.61" y="83.32" text-anchor="middle" dy="0.6em">300</text>
    <text x="132.6" y="83.32" text-anchor="middle" dy="0.6em">400</text>
  </g>
  <g class="guide colorkey" id="img-08a23731-4">
    <g fill="#4C404B" font-size="2.82" font-family="'PT Sans','Helvetica Neue','Helvetica',sans-serif" id="img-08a23731-5">
      <text x="138.42" y="29.15" dy="0.35em" id="img-08a23731-6" class="color_x9">x9</text>
      <text x="138.42" y="32.78" dy="0.35em" id="img-08a23731-7" class="color_x2">x2</text>
      <text x="138.42" y="36.4" dy="0.35em" id="img-08a23731-8" class="color_x5">x5</text>
      <text x="138.42" y="40.03" dy="0.35em" id="img-08a23731-9" class="color_x6">x6</text>
      <text x="138.42" y="43.66" dy="0.35em" id="img-08a23731-10" class="color_x7">x7</text>
      <text x="138.42" y="47.28" dy="0.35em" id="img-08a23731-11" class="color_x3">x3</text>
      <text x="138.42" y="50.91" dy="0.35em" id="img-08a23731-12" class="color_x8">x8</text>
      <text x="138.42" y="54.54" dy="0.35em" id="img-08a23731-13" class="color_x4">x4</text>
      <text x="138.42" y="58.16" dy="0.35em" id="img-08a23731-14" class="color_x10">x10</text>
      <text x="138.42" y="61.79" dy="0.35em" id="img-08a23731-15" class="color_x1">x1</text>
    </g>
    <g stroke="#000000" stroke-opacity="0.000" id="img-08a23731-16">
      <rect x="135.6" y="28.24" width="1.81" height="1.81" id="img-08a23731-17" fill="#00BFFF" class="color_x9"/>
      <rect x="135.6" y="31.87" width="1.81" height="1.81" id="img-08a23731-18" fill="#D4CA3A" class="color_x2"/>
      <rect x="135.6" y="35.5" width="1.81" height="1.81" id="img-08a23731-19" fill="#FF6DAE" class="color_x5"/>
      <rect x="135.6" y="39.12" width="1.81" height="1.81" id="img-08a23731-20" fill="#00B78D" class="color_x6"/>
      <rect x="135.6" y="42.75" width="1.81" height="1.81" id="img-08a23731-21" fill="#BEA9FF" class="color_x7"/>
      <rect x="135.6" y="46.38" width="1.81" height="1.81" id="img-08a23731-22" fill="#FF6765" class="color_x3"/>
      <rect x="135.6" y="50" width="1.81" height="1.81" id="img-08a23731-23" fill="#C6C6C6" class="color_x8"/>
      <rect x="135.6" y="53.63" width="1.81" height="1.81" id="img-08a23731-24" fill="#63DF75" class="color_x4"/>
      <rect x="135.6" y="57.26" width="1.81" height="1.81" id="img-08a23731-25" fill="#00E6D3" class="color_x10"/>
      <rect x="135.6" y="60.88" width="1.81" height="1.81" id="img-08a23731-26" fill="#E870DD" class="color_x1"/>
    </g>
    <g fill="#362A35" font-size="3.88" font-family="'PT Sans','Helvetica Neue','Helvetica',sans-serif" stroke="#000000" stroke-opacity="0.000" id="img-08a23731-27">
      <text x="135.6" y="25.33" id="img-08a23731-28">Column</text>
    </g>
  </g>
<g clip-path="url(#img-08a23731-29)">
  <g id="img-08a23731-30">
    <g pointer-events="visible" opacity="1" fill="#000000" fill-opacity="0.000" stroke="#000000" stroke-opacity="0.000" class="guide background" id="img-08a23731-31">
      <rect x="18.63" y="5" width="115.97" height="77.32" id="img-08a23731-32"/>
    </g>
    <g class="guide ygridlines xfixed" stroke-dasharray="0.5,0.5" stroke-width="0.2" stroke="#D0D0E0" id="img-08a23731-33">
      <path fill="none" d="M18.63,80.31 L 134.6 80.31" id="img-08a23731-34"/>
      <path fill="none" d="M18.63,43.66 L 134.6 43.66" id="img-08a23731-35"/>
      <path fill="none" d="M18.63,7 L 134.6 7" id="img-08a23731-36"/>
    </g>
    <g class="guide xgridlines yfixed" stroke-dasharray="0.5,0.5" stroke-width="0.2" stroke="#D0D0E0" id="img-08a23731-37">
      <path fill="none" d="M20.63,5 L 20.63 82.32" id="img-08a23731-38"/>
      <path fill="none" d="M48.62,5 L 48.62 82.32" id="img-08a23731-39"/>
      <path fill="none" d="M76.62,5 L 76.62 82.32" id="img-08a23731-40"/>
      <path fill="none" d="M104.61,5 L 104.61 82.32" id="img-08a23731-41"/>
      <path fill="none" d="M132.6,5 L 132.6 82.32" id="img-08a23731-42"/>
    </g>
    <g class="plotpanel" id="img-08a23731-43">
      <g stroke-width="0.3" fill="#000000" fill-opacity="0.000" stroke-dasharray="none" id="img-08a23731-44">
        <path fill="none" d="M20.91,70.85 L 21.19 70.53 21.47 70.2 21.75 69.88 22.03 69.56 22.31 69.24 22.59 68.92 22.87 68.6 23.15 68.29 23.43 67.98 23.71 67.67 23.99 67.36 24.27 67.05 24.55 66.75 24.83 66.45 25.11 66.14 25.39 65.85 25.67 65.55 25.95 65.25 26.23 64.96 26.51 64.66 26.79 64.37 27.07 64.08 27.35 63.8 27.63 63.51 27.91 63.23 28.19 62.94 28.47 62.66 28.75 62.38 29.03 62.1 29.31 61.83 29.59 61.55 29.87 61.28 30.15 61.01 30.43 60.74 30.71 60.47 30.99 60.2 31.27 59.94 31.55 59.68 31.83 59.41 32.11 59.15 32.39 58.89 32.67 58.64 32.95 58.38 33.23 58.13 33.51 57.87 33.79 57.62 34.07 57.37 34.35 57.13 34.63 56.88 34.91 56.63 35.19 56.39 35.47 56.15 35.75 55.91 36.03 55.67 36.31 55.43 36.59 55.19 36.87 54.96 37.15 54.72 37.43 54.49 37.71 54.26 37.99 54.03 38.27 53.8 38.55 53.57 38.83 53.35 39.11 53.12 39.39 52.9 39.67 52.68 39.95 52.46 40.23 52.24 40.51 52.02 40.79 51.8 41.07 51.59 41.35 51.38 41.63 51.16 41.91 50.95 42.19 50.74 42.47 50.53 42.75 50.33 43.03 50.12 43.31 49.92 43.59 49.71 43.87 49.51 44.15 49.31 44.43 49.11 44.71 48.91 44.99 48.71 45.27 48.52 45.55 48.32 45.83 48.13 46.11 47.94 46.39 47.75 46.67 47.56 46.95 47.37 47.22 47.18 47.5 46.99 47.78 46.81 48.06 46.63 48.34 46.44 48.62 46.26 48.9 46.08 49.18 45.9 49.46 45.72 49.74 45.55 50.02 45.37 50.3 45.19 50.58 45.02 50.86 44.85 51.14 44.68 51.42 44.51 51.7 44.34 51.98 44.17 52.26 44 52.54 43.84 52.82 43.67 53.1 43.51 53.38 43.34 53.66 43.18 53.94 43.02 54.22 42.86 54.5 42.7 54.78 42.55 55.06 42.39 55.34 42.23 55.62 42.08 55.9 41.93 56.18 41.77 56.46 41.62 56.74 41.47 57.02 41.32 57.3 41.18 57.58 41.03 57.86 40.88 58.14 40.74 58.42 40.59 58.7 40.45 58.98 40.31 59.26 40.17 59.54 40.03 59.82 39.89 60.1 39.75 60.38 39.61 60.66 39.47 60.94 39.34 61.22 39.2 61.5 39.07 61.78 38.94 62.06 38.81 62.34 38.67 62.62 38.54 62.9 38.42 63.18 38.29 63.46 38.16 63.74 38.03 64.02 37.91 64.3 37.78 64.58 37.66 64.86 37.54 65.14 37.42 65.42 37.3 65.7 37.18 65.98 37.06 66.26 36.94 66.54 36.82 66.82 36.71 67.1 36.59 67.38 36.48 67.66 36.36 67.94 36.25 68.22 36.14 68.5 36.03 68.78 35.92 69.06 35.81 69.34 35.7 69.62 35.59 69.9 35.48 70.18 35.38 70.46 35.27 70.74 35.17 71.02 35.06 71.3 34.96 71.58 34.86 71.86 34.76 72.14 34.66 72.42 34.56 72.7 34.46 72.98 34.36 73.26 34.26 73.54 34.17 73.82 34.07 74.1 33.98 74.38 33.88 74.66 33.79 74.94 33.7 75.22 33.61 75.5 33.52 75.78 33.43 76.06 33.34 76.34 33.25 76.62 33.16 76.9 33.07 77.18 32.99 77.46 32.9 77.74 32.82 78.02 32.73 78.3 32.65 78.58 32.57 78.86 32.49 79.14 32.4 79.42 32.32 79.7 32.25 79.98 32.17 80.26 32.09 80.54 32.01 80.82 31.94 81.1 31.86 81.38 31.78 81.66 31.71 81.94 31.64 82.22 31.56 82.5 31.49 82.78 31.42 83.06 31.35 83.34 31.28 83.62 31.21 83.9 31.14 84.18 31.07 84.46 31.01 84.74 30.94 85.02 30.88 85.3 30.81 85.58 30.75 85.86 30.68 86.14 30.62 86.42 30.56 86.69 30.5 86.97 30.44 87.25 30.38 87.53 30.32 87.81 30.26 88.09 30.2 88.37 30.14 88.65 30.09 88.93 30.03 89.21 29.97 89.49 29.92 89.77 29.87 90.05 29.81 90.33 29.76 90.61 29.71 90.89 29.66 91.17 29.61 91.45 29.56 91.73 29.51 92.01 29.46 92.29 29.41 92.57 29.36 92.85 29.32 93.13 29.27 93.41 29.22 93.69 29.18 93.97 29.14 94.25 29.09 94.53 29.05 94.81 29.01 95.09 28.97 95.37 28.92 95.65 28.88 95.93 28.85 96.21 28.81 96.49 28.77 96.77 28.73 97.05 28.69 97.33 28.66 97.61 28.62 97.89 28.59 98.17 28.55 98.45 28.52 98.73 28.48 99.01 28.45 99.29 28.42 99.57 28.39 99.85 28.36 100.13 28.33 100.41 28.3 100.69 28.27 100.97 28.24 101.25 28.21 101.53 28.19 101.81 28.16 102.09 28.14 102.37 28.11 102.65 28.09 102.93 28.06 103.21 28.04 103.49 28.02 103.77 27.99 104.05 27.97 104.33 27.95 104.61 27.93 104.89 27.91 105.17 27.89 105.45 27.88 105.73 27.86 106.01 27.84 106.29 27.83 106.57 27.81 106.85 27.79 107.13 27.78 107.41 27.77 107.69 27.75 107.97 27.74 108.25 27.73 108.53 27.72 108.81 27.71 109.09 27.69 109.37 27.69 109.65 27.68 109.93 27.67 110.21 27.66 110.49 27.65 110.77 27.65 111.05 27.64 111.33 27.63 111.61 27.63 111.89 27.63 112.17 27.62 112.45 27.62 112.73 27.62 113.01 27.61 113.29 27.61 113.57 27.61" id="img-08a23731-45" stroke="#00B78D" class="geometry color_x6"/>
        <path fill="none" d="M20.91,68.77 L 21.19 67.96 21.47 67.14 21.75 66.32 22.03 65.51 22.31 64.69 22.59 63.88 22.87 63.06 23.15 62.24 23.43 61.44 23.71 60.65 23.99 59.87 24.27 59.1 24.55 58.34 24.83 57.59 25.11 56.86 25.39 56.13 25.67 55.41 25.95 54.71 26.23 54.01 26.51 53.33 26.79 52.66 27.07 51.99 27.35 51.34 27.63 50.69 27.91 50.06 28.19 49.43 28.47 48.81 28.75 48.2 29.03 47.6 29.31 47.01 29.59 46.43 29.87 45.86 30.15 45.29 30.43 44.73 30.71 44.18 30.99 43.64 31.27 43.11 31.55 42.58 31.83 42.07 32.11 41.56 32.39 41.05 32.67 40.56 32.95 40.07 33.23 39.59 33.51 39.11 33.79 38.65 34.07 38.19 34.35 37.73 34.63 37.28 34.91 36.84 35.19 36.41 35.47 35.98 35.75 35.56 36.03 35.14 36.31 34.73 36.59 34.33 36.87 33.93 37.15 33.54 37.43 33.16 37.71 32.77 37.99 32.4 38.27 32.03 38.55 31.67 38.83 31.31 39.11 30.95 39.39 30.61 39.67 30.26 39.95 29.92 40.23 29.59 40.51 29.26 40.79 28.94 41.07 28.62 41.35 28.3 41.63 27.99 41.91 27.69 42.19 27.39 42.47 27.09 42.75 26.8 43.03 26.51 43.31 26.23 43.59 25.95 43.87 25.67 44.15 25.4 44.43 25.13 44.71 24.87 44.99 24.61 45.27 24.35 45.55 24.1 45.83 23.85 46.11 23.61 46.39 23.37 46.67 23.13 46.95 22.89 47.22 22.66 47.5 22.44 47.78 22.21 48.06 21.99 48.34 21.77 48.62 21.56 48.9 21.35 49.18 21.14 49.46 20.93 49.74 20.73 50.02 20.53 50.3 20.33 50.58 20.14 50.86 19.95 51.14 19.76 51.42 19.58 51.7 19.39 51.98 19.21 52.26 19.04 52.54 18.86 52.82 18.69 53.1 18.52 53.38 18.35 53.66 18.19 53.94 18.03 54.22 17.87 54.5 17.71 54.78 17.55 55.06 17.4 55.34 17.25 55.62 17.1 55.9 16.95 56.18 16.81 56.46 16.67 56.74 16.53 57.02 16.39 57.3 16.25 57.58 16.12 57.86 15.99 58.14 15.86 58.42 15.73 58.7 15.6 58.98 15.48 59.26 15.36 59.54 15.24 59.82 15.12 60.1 15 60.38 14.88 60.66 14.77 60.94 14.66 61.22 14.55 61.5 14.44 61.78 14.33 62.06 14.22 62.34 14.12 62.62 14.02 62.9 13.92 63.18 13.82 63.46 13.72 63.74 13.62 64.02 13.53 64.3 13.43 64.58 13.34 64.86 13.25 65.14 13.16 65.42 13.07 65.7 12.98 65.98 12.9 66.26 12.81 66.54 12.73 66.82 12.65 67.1 12.57 67.38 12.49 67.66 12.41 67.94 12.33 68.22 12.25 68.5 12.18 68.78 12.1 69.06 12.03 69.34 11.96 69.62 11.89 69.9 11.82 70.18 11.75 70.46 11.68 70.74 11.62 71.02 11.55 71.3 11.49 71.58 11.42 71.86 11.36 72.14 11.3 72.42 11.24 72.7 11.18 72.98 11.12 73.26 11.06 73.54 11 73.82 10.94 74.1 10.89 74.38 10.83 74.66 10.78 74.94 10.73 75.22 10.67 75.5 10.62 75.78 10.57 76.06 10.52 76.34 10.47 76.62 10.42 76.9 10.38 77.18 10.33 77.46 10.28 77.74 10.24 78.02 10.19 78.3 10.15 78.58 10.1 78.86 10.06 79.14 10.02 79.42 9.98 79.7 9.94 79.98 9.9 80.26 9.86 80.54 9.82 80.82 9.78 81.1 9.74 81.38 9.7 81.66 9.67 81.94 9.63 82.22 9.59 82.5 9.56 82.78 9.52 83.06 9.49 83.34 9.46 83.62 9.42 83.9 9.39 84.18 9.36 84.46 9.33 84.74 9.3 85.02 9.27 85.3 9.24 85.58 9.21 85.86 9.18 86.14 9.15 86.42 9.12 86.69 9.1 86.97 9.07 87.25 9.04 87.53 9.02 87.81 8.99 88.09 8.96 88.37 8.94 88.65 8.91 88.93 8.89 89.21 8.87 89.49 8.84 89.77 8.82 90.05 8.8 90.33 8.78 90.61 8.75 90.89 8.73 91.17 8.71 91.45 8.69 91.73 8.67 92.01 8.65 92.29 8.63 92.57 8.61 92.85 8.59 93.13 8.58 93.41 8.56 93.69 8.54 93.97 8.52 94.25 8.51 94.53 8.49 94.81 8.47 95.09 8.46 95.37 8.44 95.65 8.42 95.93 8.41 96.21 8.39 96.49 8.38 96.77 8.36 97.05 8.35 97.33 8.34 97.61 8.32 97.89 8.31 98.17 8.3 98.45 8.28 98.73 8.27 99.01 8.26 99.29 8.25 99.57 8.24 99.85 8.23 100.13 8.21 100.41 8.2 100.69 8.19 100.97 8.18 101.25 8.17 101.53 8.16 101.81 8.15 102.09 8.14 102.37 8.14 102.65 8.13 102.93 8.12 103.21 8.11 103.49 8.1 103.77 8.09 104.05 8.09 104.33 8.08 104.61 8.07 104.89 8.07 105.17 8.06 105.45 8.05 105.73 8.05 106.01 8.04 106.29 8.03 106.57 8.03 106.85 8.02 107.13 8.02 107.41 8.01 107.69 8.01 107.97 8 108.25 8 108.53 8 108.81 7.99 109.09 7.99 109.37 7.99 109.65 7.98 109.93 7.98 110.21 7.98 110.49 7.97 110.77 7.97 111.05 7.97 111.33 7.97 111.61 7.97 111.89 7.97 112.17 7.96 112.45 7.96 112.73 7.96 113.01 7.96 113.29 7.96 113.57 7.96" id="img-08a23731-46" stroke="#00BFFF" class="geometry color_x9"/>
        <path fill="none" d="M20.91,75.73 L 21.19 75.25 21.47 74.78 21.75 74.3 22.03 73.82 22.31 73.34 22.59 72.86 22.87 72.38 23.15 71.9 23.43 71.42 23.71 70.94 23.99 70.46 24.27 69.99 24.55 69.51 24.83 69.03 25.11 68.55 25.39 68.07 25.67 67.59 25.95 67.11 26.23 66.63 26.51 66.15 26.79 65.67 27.07 65.19 27.35 64.72 27.63 64.24 27.91 63.76 28.19 63.28 28.47 62.8 28.75 62.32 29.03 61.84 29.31 61.36 29.59 60.88 29.87 60.4 30.15 59.92 30.43 59.45 30.71 58.97 30.99 58.49 31.27 58.01 31.55 57.53 31.83 57.06 32.11 56.59 32.39 56.12 32.67 55.66 32.95 55.21 33.23 54.76 33.51 54.31 33.79 53.87 34.07 53.43 34.35 53 34.63 52.57 34.91 52.14 35.19 51.72 35.47 51.3 35.75 50.89 36.03 50.48 36.31 50.07 36.59 49.67 36.87 49.27 37.15 48.87 37.43 48.48 37.71 48.1 37.99 47.71 38.27 47.33 38.55 46.96 38.83 46.58 39.11 46.22 39.39 45.85 39.67 45.49 39.95 45.13 40.23 44.77 40.51 44.42 40.79 44.07 41.07 43.73 41.35 43.39 41.63 43.05 41.91 42.71 42.19 42.38 42.47 42.05 42.75 41.73 43.03 41.41 43.31 41.09 43.59 40.77 43.87 40.46 44.15 40.15 44.43 39.84 44.71 39.54 44.99 39.23 45.27 38.94 45.55 38.64 45.83 38.35 46.11 38.06 46.39 37.77 46.67 37.49 46.95 37.2 47.22 36.93 47.5 36.65 47.78 36.38 48.06 36.1 48.34 35.84 48.62 35.57 48.9 35.31 49.18 35.05 49.46 34.79 49.74 34.53 50.02 34.28 50.3 34.03 50.58 33.78 50.86 33.54 51.14 33.29 51.42 33.05 51.7 32.81 51.98 32.58 52.26 32.34 52.54 32.11 52.82 31.88 53.1 31.65 53.38 31.43 53.66 31.2 53.94 30.98 54.22 30.77 54.5 30.55 54.78 30.33 55.06 30.12 55.34 29.91 55.62 29.7 55.9 29.5 56.18 29.29 56.46 29.09 56.74 28.89 57.02 28.69 57.3 28.5 57.58 28.3 57.86 28.11 58.14 27.92 58.42 27.73 58.7 27.55 58.98 27.36 59.26 27.18 59.54 27 59.82 26.82 60.1 26.64 60.38 26.46 60.66 26.29 60.94 26.12 61.22 25.95 61.5 25.78 61.78 25.61 62.06 25.45 62.34 25.28 62.62 25.12 62.9 24.96 63.18 24.8 63.46 24.64 63.74 24.49 64.02 24.33 64.3 24.18 64.58 24.03 64.86 23.88 65.14 23.73 65.42 23.59 65.7 23.44 65.98 23.3 66.26 23.15 66.54 23.01 66.82 22.87 67.1 22.74 67.38 22.6 67.66 22.47 67.94 22.33 68.22 22.2 68.5 22.07 68.78 21.94 69.06 21.81 69.34 21.68 69.62 21.56 69.9 21.44 70.18 21.31 70.46 21.19 70.74 21.07 71.02 20.95 71.3 20.83 71.58 20.72 71.86 20.6 72.14 20.49 72.42 20.37 72.7 20.26 72.98 20.15 73.26 20.04 73.54 19.94 73.82 19.83 74.1 19.72 74.38 19.62 74.66 19.51 74.94 19.41 75.22 19.31 75.5 19.21 75.78 19.11 76.06 19.01 76.34 18.92 76.62 18.82 76.9 18.73 77.18 18.63 77.46 18.54 77.74 18.45 78.02 18.36 78.3 18.27 78.58 18.18 78.86 18.09 79.14 18.01 79.42 17.92 79.7 17.84 79.98 17.75 80.26 17.67 80.54 17.59 80.82 17.51 81.1 17.43 81.38 17.35 81.66 17.27 81.94 17.19 82.22 17.12 82.5 17.04 82.78 16.97 83.06 16.89 83.34 16.82 83.62 16.75 83.9 16.68 84.18 16.61 84.46 16.54 84.74 16.47 85.02 16.4 85.3 16.34 85.58 16.27 85.86 16.21 86.14 16.14 86.42 16.08 86.69 16.02 86.97 15.96 87.25 15.9 87.53 15.84 87.81 15.78 88.09 15.72 88.37 15.66 88.65 15.61 88.93 15.55 89.21 15.49 89.49 15.44 89.77 15.39 90.05 15.33 90.33 15.28 90.61 15.23 90.89 15.18 91.17 15.13 91.45 15.08 91.73 15.03 92.01 14.98 92.29 14.94 92.57 14.89 92.85 14.84 93.13 14.8 93.41 14.76 93.69 14.71 93.97 14.67 94.25 14.63 94.53 14.59 94.81 14.54 95.09 14.5 95.37 14.47 95.65 14.43 95.93 14.39 96.21 14.35 96.49 14.31 96.77 14.28 97.05 14.24 97.33 14.21 97.61 14.17 97.89 14.14 98.17 14.11 98.45 14.08 98.73 14.04 99.01 14.01 99.29 13.98 99.57 13.95 99.85 13.92 100.13 13.9 100.41 13.87 100.69 13.84 100.97 13.81 101.25 13.79 101.53 13.76 101.81 13.74 102.09 13.71 102.37 13.69 102.65 13.67 102.93 13.64 103.21 13.62 103.49 13.6 103.77 13.58 104.05 13.56 104.33 13.54 104.61 13.52 104.89 13.5 105.17 13.49 105.45 13.47 105.73 13.45 106.01 13.44 106.29 13.42 106.57 13.41 106.85 13.39 107.13 13.38 107.41 13.37 107.69 13.35 107.97 13.34 108.25 13.33 108.53 13.32 108.81 13.31 109.09 13.3 109.37 13.29 109.65 13.28 109.93 13.28 110.21 13.27 110.49 13.26 110.77 13.26 111.05 13.25 111.33 13.25 111.61 13.24 111.89 13.24 112.17 13.23 112.45 13.23 112.73 13.23 113.01 13.23 113.29 13.23 113.57 13.23" id="img-08a23731-47" stroke="#00E6D3" class="geometry color_x10"/>
        <path fill="none" d="M20.91,77.01 L 21.19 76.68 21.47 76.36 21.75 76.04 22.03 75.72 22.31 75.4 22.59 75.08 22.87 74.77 23.15 74.45 23.43 74.14 23.71 73.83 23.99 73.52 24.27 73.22 24.55 72.91 24.83 72.61 25.11 72.31 25.39 72.01 25.67 71.71 25.95 71.41 26.23 71.12 26.51 70.83 26.79 70.53 27.07 70.24 27.35 69.95 27.63 69.67 27.91 69.38 28.19 69.1 28.47 68.82 28.75 68.53 29.03 68.26 29.31 67.98 29.59 67.7 29.87 67.43 30.15 67.15 30.43 66.88 30.71 66.61 30.99 66.34 31.27 66.08 31.55 65.81 31.83 65.55 32.11 65.28 32.39 65.02 32.67 64.76 32.95 64.5 33.23 64.25 33.51 63.99 33.79 63.74 34.07 63.49 34.35 63.23 34.63 62.98 34.91 62.74 35.19 62.49 35.47 62.24 35.75 62 36.03 61.76 36.31 61.51 36.59 61.27 36.87 61.04 37.15 60.8 37.43 60.56 37.71 60.33 37.99 60.09 38.27 59.86 38.55 59.63 38.83 59.4 39.11 59.17 39.39 58.95 39.67 58.72 39.95 58.5 40.23 58.27 40.51 58.05 40.79 57.83 41.07 57.61 41.35 57.4 41.63 57.18 41.91 56.96 42.19 56.75 42.47 56.54 42.75 56.33 43.03 56.12 43.31 55.91 43.59 55.7 43.87 55.49 44.15 55.29 44.43 55.08 44.71 54.88 44.99 54.68 45.27 54.48 45.55 54.28 45.83 54.08 46.11 53.88 46.39 53.69 46.67 53.49 46.95 53.3 47.22 53.11 47.5 52.92 47.78 52.73 48.06 52.54 48.34 52.35 48.62 52.16 48.9 51.98 49.18 51.79 49.46 51.61 49.74 51.43 50.02 51.25 50.3 51.07 50.58 50.89 50.86 50.71 51.14 50.53 51.42 50.36 51.7 50.18 51.98 50.01 52.26 49.84 52.54 49.67 52.82 49.5 53.1 49.33 53.38 49.16 53.66 48.99 53.94 48.83 54.22 48.66 54.5 48.5 54.78 48.34 55.06 48.17 55.34 48.01 55.62 47.85 55.9 47.7 56.18 47.54 56.46 47.38 56.74 47.23 57.02 47.07 57.3 46.92 57.58 46.77 57.86 46.61 58.14 46.46 58.42 46.31 58.7 46.17 58.98 46.02 59.26 45.87 59.54 45.73 59.82 45.58 60.1 45.44 60.38 45.29 60.66 45.15 60.94 45.01 61.22 44.87 61.5 44.73 61.78 44.6 62.06 44.46 62.34 44.32 62.62 44.19 62.9 44.05 63.18 43.92 63.46 43.79 63.74 43.66 64.02 43.53 64.3 43.4 64.58 43.27 64.86 43.14 65.14 43.01 65.42 42.89 65.7 42.76 65.98 42.64 66.26 42.51 66.54 42.39 66.82 42.27 67.1 42.15 67.38 42.03 67.66 41.91 67.94 41.79 68.22 41.68 68.5 41.56 68.78 41.44 69.06 41.33 69.34 41.22 69.62 41.1 69.9 40.99 70.18 40.88 70.46 40.77 70.74 40.66 71.02 40.55 71.3 40.44 71.58 40.34 71.86 40.23 72.14 40.13 72.42 40.02 72.7 39.92 72.98 39.82 73.26 39.71 73.54 39.61 73.82 39.51 74.1 39.41 74.38 39.32 74.66 39.22 74.94 39.12 75.22 39.02 75.5 38.93 75.78 38.83 76.06 38.74 76.34 38.65 76.62 38.56 76.9 38.46 77.18 38.37 77.46 38.28 77.74 38.19 78.02 38.11 78.3 38.02 78.58 37.93 78.86 37.85 79.14 37.76 79.42 37.68 79.7 37.59 79.98 37.51 80.26 37.43 80.54 37.35 80.82 37.27 81.1 37.19 81.38 37.11 81.66 37.03 81.94 36.95 82.22 36.88 82.5 36.8 82.78 36.72 83.06 36.65 83.34 36.58 83.62 36.5 83.9 36.43 84.18 36.36 84.46 36.29 84.74 36.22 85.02 36.15 85.3 36.08 85.58 36.01 85.86 35.95 86.14 35.88 86.42 35.81 86.69 35.75 86.97 35.68 87.25 35.62 87.53 35.56 87.81 35.5 88.09 35.43 88.37 35.37 88.65 35.31 88.93 35.25 89.21 35.2 89.49 35.14 89.77 35.08 90.05 35.02 90.33 34.97 90.61 34.91 90.89 34.86 91.17 34.81 91.45 34.75 91.73 34.7 92.01 34.65 92.29 34.6 92.57 34.55 92.85 34.5 93.13 34.45 93.41 34.4 93.69 34.35 93.97 34.31 94.25 34.26 94.53 34.22 94.81 34.17 95.09 34.13 95.37 34.08 95.65 34.04 95.93 34 96.21 33.96 96.49 33.92 96.77 33.88 97.05 33.84 97.33 33.8 97.61 33.76 97.89 33.72 98.17 33.69 98.45 33.65 98.73 33.62 99.01 33.58 99.29 33.55 99.57 33.52 99.85 33.48 100.13 33.45 100.41 33.42 100.69 33.39 100.97 33.36 101.25 33.33 101.53 33.3 101.81 33.27 102.09 33.25 102.37 33.22 102.65 33.19 102.93 33.17 103.21 33.14 103.49 33.12 103.77 33.1 104.05 33.07 104.33 33.05 104.61 33.03 104.89 33.01 105.17 32.99 105.45 32.97 105.73 32.95 106.01 32.93 106.29 32.92 106.57 32.9 106.85 32.88 107.13 32.87 107.41 32.85 107.69 32.84 107.97 32.82 108.25 32.81 108.53 32.8 108.81 32.79 109.09 32.78 109.37 32.77 109.65 32.76 109.93 32.75 110.21 32.74 110.49 32.73 110.77 32.72 111.05 32.72 111.33 32.71 111.61 32.71 111.89 32.7 112.17 32.7 112.45 32.7 112.73 32.69 113.01 32.69 113.29 32.69 113.57 32.69" id="img-08a23731-48" stroke="#63DF75" class="geometry color_x4"/>
        <path fill="none" d="M20.91,62.48 L 21.19 62.23 21.47 61.98 21.75 61.74 22.03 61.5 22.31 61.26 22.59 61.02 22.87 60.78 23.15 60.54 23.43 60.3 23.71 60.07 23.99 59.84 24.27 59.6 24.55 59.37 24.83 59.14 25.11 58.91 25.39 58.68 25.67 58.46 25.95 58.23 26.23 58.01 26.51 57.79 26.79 57.56 27.07 57.34 27.35 57.12 27.63 56.91 27.91 56.69 28.19 56.47 28.47 56.26 28.75 56.04 29.03 55.83 29.31 55.62 29.59 55.41 29.87 55.2 30.15 54.99 30.43 54.79 30.71 54.58 30.99 54.38 31.27 54.17 31.55 53.97 31.83 53.77 32.11 53.57 32.39 53.37 32.67 53.17 32.95 52.98 33.23 52.78 33.51 52.59 33.79 52.39 34.07 52.2 34.35 52.01 34.63 51.82 34.91 51.63 35.19 51.44 35.47 51.25 35.75 51.06 36.03 50.88 36.31 50.7 36.59 50.51 36.87 50.33 37.15 50.15 37.43 49.97 37.71 49.79 37.99 49.61 38.27 49.43 38.55 49.26 38.83 49.08 39.11 48.91 39.39 48.73 39.67 48.56 39.95 48.39 40.23 48.22 40.51 48.05 40.79 47.88 41.07 47.71 41.35 47.55 41.63 47.38 41.91 47.22 42.19 47.05 42.47 46.89 42.75 46.73 43.03 46.57 43.31 46.41 43.59 46.25 43.87 46.09 44.15 45.93 44.43 45.78 44.71 45.62 44.99 45.47 45.27 45.31 45.55 45.16 45.83 45.01 46.11 44.86 46.39 44.71 46.67 44.56 46.95 44.41 47.22 44.26 47.5 44.12 47.78 43.97 48.06 43.82 48.34 43.68 48.62 43.54 48.9 43.4 49.18 43.25 49.46 43.11 49.74 42.97 50.02 42.83 50.3 42.7 50.58 42.56 50.86 42.42 51.14 42.29 51.42 42.15 51.7 42.02 51.98 41.88 52.26 41.75 52.54 41.62 52.82 41.49 53.1 41.36 53.38 41.23 53.66 41.1 53.94 40.98 54.22 40.85 54.5 40.72 54.78 40.6 55.06 40.47 55.34 40.35 55.62 40.23 55.9 40.1 56.18 39.98 56.46 39.86 56.74 39.74 57.02 39.62 57.3 39.51 57.58 39.39 57.86 39.27 58.14 39.16 58.42 39.04 58.7 38.93 58.98 38.81 59.26 38.7 59.54 38.59 59.82 38.48 60.1 38.37 60.38 38.26 60.66 38.15 60.94 38.04 61.22 37.93 61.5 37.82 61.78 37.72 62.06 37.61 62.34 37.51 62.62 37.4 62.9 37.3 63.18 37.19 63.46 37.09 63.74 36.99 64.02 36.89 64.3 36.79 64.58 36.69 64.86 36.59 65.14 36.49 65.42 36.4 65.7 36.3 65.98 36.2 66.26 36.11 66.54 36.02 66.82 35.92 67.1 35.83 67.38 35.74 67.66 35.64 67.94 35.55 68.22 35.46 68.5 35.37 68.78 35.28 69.06 35.19 69.34 35.11 69.62 35.02 69.9 34.93 70.18 34.85 70.46 34.76 70.74 34.68 71.02 34.59 71.3 34.51 71.58 34.43 71.86 34.35 72.14 34.26 72.42 34.18 72.7 34.1 72.98 34.02 73.26 33.94 73.54 33.87 73.82 33.79 74.1 33.71 74.38 33.64 74.66 33.56 74.94 33.48 75.22 33.41 75.5 33.34 75.78 33.26 76.06 33.19 76.34 33.12 76.62 33.05 76.9 32.98 77.18 32.91 77.46 32.84 77.74 32.77 78.02 32.7 78.3 32.63 78.58 32.56 78.86 32.5 79.14 32.43 79.42 32.37 79.7 32.3 79.98 32.24 80.26 32.17 80.54 32.11 80.82 32.05 81.1 31.99 81.38 31.93 81.66 31.86 81.94 31.8 82.22 31.74 82.5 31.69 82.78 31.63 83.06 31.57 83.34 31.51 83.62 31.46 83.9 31.4 84.18 31.34 84.46 31.29 84.74 31.23 85.02 31.18 85.3 31.13 85.58 31.07 85.86 31.02 86.14 30.97 86.42 30.92 86.69 30.87 86.97 30.82 87.25 30.77 87.53 30.72 87.81 30.67 88.09 30.63 88.37 30.58 88.65 30.53 88.93 30.49 89.21 30.44 89.49 30.4 89.77 30.35 90.05 30.31 90.33 30.26 90.61 30.22 90.89 30.18 91.17 30.14 91.45 30.1 91.73 30.06 92.01 30.02 92.29 29.98 92.57 29.94 92.85 29.9 93.13 29.86 93.41 29.82 93.69 29.79 93.97 29.75 94.25 29.71 94.53 29.68 94.81 29.64 95.09 29.61 95.37 29.58 95.65 29.54 95.93 29.51 96.21 29.48 96.49 29.45 96.77 29.42 97.05 29.39 97.33 29.36 97.61 29.33 97.89 29.3 98.17 29.27 98.45 29.24 98.73 29.21 99.01 29.19 99.29 29.16 99.57 29.13 99.85 29.11 100.13 29.08 100.41 29.06 100.69 29.04 100.97 29.01 101.25 28.99 101.53 28.97 101.81 28.95 102.09 28.92 102.37 28.9 102.65 28.88 102.93 28.86 103.21 28.84 103.49 28.83 103.77 28.81 104.05 28.79 104.33 28.77 104.61 28.76 104.89 28.74 105.17 28.72 105.45 28.71 105.73 28.7 106.01 28.68 106.29 28.67 106.57 28.65 106.85 28.64 107.13 28.63 107.41 28.62 107.69 28.61 107.97 28.6 108.25 28.59 108.53 28.58 108.81 28.57 109.09 28.56 109.37 28.55 109.65 28.54 109.93 28.54 110.21 28.53 110.49 28.52 110.77 28.52 111.05 28.51 111.33 28.51 111.61 28.51 111.89 28.5 112.17 28.5 112.45 28.5 112.73 28.49 113.01 28.49 113.29 28.49 113.57 28.49" id="img-08a23731-49" stroke="#BEA9FF" class="geometry color_x7"/>
        <path fill="none" d="M20.91,73.49 L 21.19 72.91 21.47 72.33 21.75 71.76 22.03 71.19 22.31 70.63 22.59 70.07 22.87 69.52 23.15 68.97 23.43 68.43 23.71 67.89 23.99 67.36 24.27 66.83 24.55 66.31 24.83 65.79 25.11 65.27 25.39 64.76 25.67 64.26 25.95 63.76 26.23 63.26 26.51 62.77 26.79 62.28 27.07 61.8 27.35 61.32 27.63 60.85 27.91 60.38 28.19 59.91 28.47 59.45 28.75 58.99 29.03 58.54 29.31 58.09 29.59 57.64 29.87 57.2 30.15 56.76 30.43 56.33 30.71 55.9 30.99 55.47 31.27 55.05 31.55 54.63 31.83 54.22 32.11 53.8 32.39 53.4 32.67 52.99 32.95 52.59 33.23 52.2 33.51 51.8 33.79 51.41 34.07 51.03 34.35 50.64 34.63 50.26 34.91 49.89 35.19 49.52 35.47 49.15 35.75 48.78 36.03 48.42 36.31 48.06 36.59 47.7 36.87 47.35 37.15 47 37.43 46.65 37.71 46.31 37.99 45.97 38.27 45.63 38.55 45.29 38.83 44.96 39.11 44.63 39.39 44.31 39.67 43.99 39.95 43.67 40.23 43.35 40.51 43.04 40.79 42.72 41.07 42.42 41.35 42.11 41.63 41.81 41.91 41.51 42.19 41.21 42.47 40.91 42.75 40.62 43.03 40.33 43.31 40.05 43.59 39.76 43.87 39.48 44.15 39.2 44.43 38.92 44.71 38.65 44.99 38.38 45.27 38.11 45.55 37.84 45.83 37.58 46.11 37.31 46.39 37.05 46.67 36.8 46.95 36.54 47.22 36.29 47.5 36.04 47.78 35.79 48.06 35.55 48.34 35.3 48.62 35.06 48.9 34.82 49.18 34.58 49.46 34.35 49.74 34.12 50.02 33.89 50.3 33.66 50.58 33.43 50.86 33.21 51.14 32.98 51.42 32.76 51.7 32.55 51.98 32.33 52.26 32.11 52.54 31.9 52.82 31.69 53.1 31.48 53.38 31.28 53.66 31.07 53.94 30.87 54.22 30.67 54.5 30.47 54.78 30.27 55.06 30.08 55.34 29.88 55.62 29.69 55.9 29.5 56.18 29.31 56.46 29.13 56.74 28.94 57.02 28.76 57.3 28.58 57.58 28.4 57.86 28.22 58.14 28.04 58.42 27.87 58.7 27.7 58.98 27.53 59.26 27.36 59.54 27.19 59.82 27.02 60.1 26.86 60.38 26.69 60.66 26.53 60.94 26.37 61.22 26.21 61.5 26.05 61.78 25.9 62.06 25.74 62.34 25.59 62.62 25.44 62.9 25.29 63.18 25.14 63.46 24.99 63.74 24.85 64.02 24.7 64.3 24.56 64.58 24.42 64.86 24.28 65.14 24.14 65.42 24 65.7 23.87 65.98 23.73 66.26 23.6 66.54 23.47 66.82 23.33 67.1 23.2 67.38 23.08 67.66 22.95 67.94 22.82 68.22 22.7 68.5 22.57 68.78 22.45 69.06 22.33 69.34 22.21 69.62 22.09 69.9 21.98 70.18 21.86 70.46 21.74 70.74 21.63 71.02 21.52 71.3 21.41 71.58 21.3 71.86 21.19 72.14 21.08 72.42 20.97 72.7 20.86 72.98 20.76 73.26 20.65 73.54 20.55 73.82 20.45 74.1 20.35 74.38 20.25 74.66 20.15 74.94 20.05 75.22 19.96 75.5 19.86 75.78 19.77 76.06 19.67 76.34 19.58 76.62 19.49 76.9 19.4 77.18 19.31 77.46 19.22 77.74 19.13 78.02 19.04 78.3 18.96 78.58 18.87 78.86 18.79 79.14 18.71 79.42 18.62 79.7 18.54 79.98 18.46 80.26 18.38 80.54 18.3 80.82 18.23 81.1 18.15 81.38 18.07 81.66 18 81.94 17.92 82.22 17.85 82.5 17.78 82.78 17.71 83.06 17.64 83.34 17.57 83.62 17.5 83.9 17.43 84.18 17.36 84.46 17.29 84.74 17.23 85.02 17.16 85.3 17.1 85.58 17.04 85.86 16.97 86.14 16.91 86.42 16.85 86.69 16.79 86.97 16.73 87.25 16.67 87.53 16.61 87.81 16.55 88.09 16.5 88.37 16.44 88.65 16.39 88.93 16.33 89.21 16.28 89.49 16.23 89.77 16.17 90.05 16.12 90.33 16.07 90.61 16.02 90.89 15.97 91.17 15.92 91.45 15.88 91.73 15.83 92.01 15.78 92.29 15.74 92.57 15.69 92.85 15.65 93.13 15.6 93.41 15.56 93.69 15.52 93.97 15.47 94.25 15.43 94.53 15.39 94.81 15.35 95.09 15.31 95.37 15.28 95.65 15.24 95.93 15.2 96.21 15.16 96.49 15.13 96.77 15.09 97.05 15.06 97.33 15.02 97.61 14.99 97.89 14.96 98.17 14.92 98.45 14.89 98.73 14.86 99.01 14.83 99.29 14.8 99.57 14.77 99.85 14.74 100.13 14.72 100.41 14.69 100.69 14.66 100.97 14.64 101.25 14.61 101.53 14.59 101.81 14.56 102.09 14.54 102.37 14.51 102.65 14.49 102.93 14.47 103.21 14.45 103.49 14.43 103.77 14.41 104.05 14.39 104.33 14.37 104.61 14.35 104.89 14.33 105.17 14.31 105.45 14.3 105.73 14.28 106.01 14.27 106.29 14.25 106.57 14.24 106.85 14.22 107.13 14.21 107.41 14.2 107.69 14.18 107.97 14.17 108.25 14.16 108.53 14.15 108.81 14.14 109.09 14.13 109.37 14.12 109.65 14.11 109.93 14.11 110.21 14.1 110.49 14.09 110.77 14.09 111.05 14.08 111.33 14.08 111.61 14.07 111.89 14.07 112.17 14.06 112.45 14.06 112.73 14.06 113.01 14.06 113.29 14.06 113.57 14.06" id="img-08a23731-50" stroke="#C6C6C6" class="geometry color_x8"/>
        <path fill="none" d="M20.91,67.46 L 21.19 67.07 21.47 66.68 21.75 66.28 22.03 65.89 22.31 65.5 22.59 65.1 22.87 64.71 23.15 64.32 23.43 63.94 23.71 63.55 23.99 63.17 24.27 62.79 24.55 62.42 24.83 62.05 25.11 61.68 25.39 61.31 25.67 60.94 25.95 60.58 26.23 60.22 26.51 59.86 26.79 59.51 27.07 59.16 27.35 58.81 27.63 58.46 27.91 58.12 28.19 57.77 28.47 57.43 28.75 57.1 29.03 56.76 29.31 56.43 29.59 56.1 29.87 55.77 30.15 55.45 30.43 55.12 30.71 54.8 30.99 54.48 31.27 54.17 31.55 53.85 31.83 53.54 32.11 53.23 32.39 52.92 32.67 52.62 32.95 52.31 33.23 52.01 33.51 51.71 33.79 51.42 34.07 51.12 34.35 50.83 34.63 50.54 34.91 50.25 35.19 49.97 35.47 49.68 35.75 49.4 36.03 49.12 36.31 48.84 36.59 48.57 36.87 48.29 37.15 48.02 37.43 47.75 37.71 47.48 37.99 47.22 38.27 46.95 38.55 46.69 38.83 46.43 39.11 46.17 39.39 45.91 39.67 45.66 39.95 45.41 40.23 45.15 40.51 44.91 40.79 44.66 41.07 44.41 41.35 44.17 41.63 43.93 41.91 43.69 42.19 43.45 42.47 43.21 42.75 42.97 43.03 42.74 43.31 42.51 43.59 42.28 43.87 42.05 44.15 41.82 44.43 41.6 44.71 41.38 44.99 41.15 45.27 40.93 45.55 40.72 45.83 40.5 46.11 40.28 46.39 40.07 46.67 39.86 46.95 39.65 47.22 39.44 47.5 39.23 47.78 39.03 48.06 38.82 48.34 38.62 48.62 38.42 48.9 38.22 49.18 38.02 49.46 37.82 49.74 37.63 50.02 37.43 50.3 37.24 50.58 37.05 50.86 36.86 51.14 36.67 51.42 36.49 51.7 36.3 51.98 36.12 52.26 35.93 52.54 35.75 52.82 35.57 53.1 35.39 53.38 35.22 53.66 35.04 53.94 34.87 54.22 34.7 54.5 34.52 54.78 34.35 55.06 34.18 55.34 34.02 55.62 33.85 55.9 33.68 56.18 33.52 56.46 33.36 56.74 33.2 57.02 33.04 57.3 32.88 57.58 32.72 57.86 32.56 58.14 32.41 58.42 32.26 58.7 32.1 58.98 31.95 59.26 31.8 59.54 31.65 59.82 31.5 60.1 31.36 60.38 31.21 60.66 31.07 60.94 30.92 61.22 30.78 61.5 30.64 61.78 30.5 62.06 30.36 62.34 30.22 62.62 30.09 62.9 29.95 63.18 29.82 63.46 29.68 63.74 29.55 64.02 29.42 64.3 29.29 64.58 29.16 64.86 29.03 65.14 28.91 65.42 28.78 65.7 28.66 65.98 28.53 66.26 28.41 66.54 28.29 66.82 28.17 67.1 28.05 67.38 27.93 67.66 27.81 67.94 27.7 68.22 27.58 68.5 27.47 68.78 27.35 69.06 27.24 69.34 27.13 69.62 27.02 69.9 26.91 70.18 26.8 70.46 26.69 70.74 26.58 71.02 26.48 71.3 26.37 71.58 26.27 71.86 26.16 72.14 26.06 72.42 25.96 72.7 25.86 72.98 25.76 73.26 25.66 73.54 25.56 73.82 25.47 74.1 25.37 74.38 25.28 74.66 25.18 74.94 25.09 75.22 25 75.5 24.9 75.78 24.81 76.06 24.72 76.34 24.63 76.62 24.55 76.9 24.46 77.18 24.37 77.46 24.29 77.74 24.2 78.02 24.12 78.3 24.03 78.58 23.95 78.86 23.87 79.14 23.79 79.42 23.71 79.7 23.63 79.98 23.55 80.26 23.47 80.54 23.4 80.82 23.32 81.1 23.24 81.38 23.17 81.66 23.1 81.94 23.02 82.22 22.95 82.5 22.88 82.78 22.81 83.06 22.74 83.34 22.67 83.62 22.6 83.9 22.53 84.18 22.47 84.46 22.4 84.74 22.33 85.02 22.27 85.3 22.21 85.58 22.14 85.86 22.08 86.14 22.02 86.42 21.96 86.69 21.9 86.97 21.84 87.25 21.78 87.53 21.72 87.81 21.66 88.09 21.6 88.37 21.55 88.65 21.49 88.93 21.44 89.21 21.38 89.49 21.33 89.77 21.28 90.05 21.23 90.33 21.17 90.61 21.12 90.89 21.07 91.17 21.02 91.45 20.98 91.73 20.93 92.01 20.88 92.29 20.83 92.57 20.79 92.85 20.74 93.13 20.7 93.41 20.65 93.69 20.61 93.97 20.57 94.25 20.53 94.53 20.48 94.81 20.44 95.09 20.4 95.37 20.36 95.65 20.32 95.93 20.29 96.21 20.25 96.49 20.21 96.77 20.17 97.05 20.14 97.33 20.1 97.61 20.07 97.89 20.04 98.17 20 98.45 19.97 98.73 19.94 99.01 19.91 99.29 19.88 99.57 19.85 99.85 19.82 100.13 19.79 100.41 19.76 100.69 19.73 100.97 19.7 101.25 19.68 101.53 19.65 101.81 19.63 102.09 19.6 102.37 19.58 102.65 19.55 102.93 19.53 103.21 19.51 103.49 19.49 103.77 19.47 104.05 19.45 104.33 19.43 104.61 19.41 104.89 19.39 105.17 19.37 105.45 19.35 105.73 19.34 106.01 19.32 106.29 19.3 106.57 19.29 106.85 19.27 107.13 19.26 107.41 19.25 107.69 19.23 107.97 19.22 108.25 19.21 108.53 19.2 108.81 19.19 109.09 19.18 109.37 19.17 109.65 19.16 109.93 19.15 110.21 19.15 110.49 19.14 110.77 19.13 111.05 19.13 111.33 19.12 111.61 19.12 111.89 19.11 112.17 19.11 112.45 19.11 112.73 19.1 113.01 19.1 113.29 19.1 113.57 19.1" id="img-08a23731-51" stroke="#D4CA3A" class="geometry color_x2"/>
        <path fill="none" d="M20.91,74.56 L 21.19 73.88 21.47 73.2 21.75 72.53 22.03 71.86 22.31 71.21 22.59 70.55 22.87 69.91 23.15 69.27 23.43 68.64 23.71 68.02 23.99 67.4 24.27 66.78 24.55 66.18 24.83 65.58 25.11 64.98 25.39 64.4 25.67 63.81 25.95 63.24 26.23 62.67 26.51 62.1 26.79 61.55 27.07 60.99 27.35 60.45 27.63 59.91 27.91 59.37 28.19 58.84 28.47 58.31 28.75 57.79 29.03 57.28 29.31 56.77 29.59 56.27 29.87 55.77 30.15 55.27 30.43 54.79 30.71 54.3 30.99 53.82 31.27 53.35 31.55 52.88 31.83 52.42 32.11 51.96 32.39 51.5 32.67 51.05 32.95 50.61 33.23 50.17 33.51 49.73 33.79 49.3 34.07 48.87 34.35 48.45 34.63 48.03 34.91 47.61 35.19 47.2 35.47 46.8 35.75 46.39 36.03 46 36.31 45.6 36.59 45.21 36.87 44.83 37.15 44.45 37.43 44.07 37.71 43.69 37.99 43.32 38.27 42.96 38.55 42.59 38.83 42.23 39.11 41.88 39.39 41.53 39.67 41.18 39.95 40.84 40.23 40.49 40.51 40.16 40.79 39.82 41.07 39.49 41.35 39.17 41.63 38.84 41.91 38.52 42.19 38.2 42.47 37.89 42.75 37.58 43.03 37.27 43.31 36.97 43.59 36.67 43.87 36.37 44.15 36.07 44.43 35.78 44.71 35.49 44.99 35.21 45.27 34.92 45.55 34.64 45.83 34.37 46.11 34.09 46.39 33.82 46.67 33.55 46.95 33.29 47.22 33.02 47.5 32.76 47.78 32.5 48.06 32.25 48.34 32 48.62 31.75 48.9 31.5 49.18 31.26 49.46 31.01 49.74 30.77 50.02 30.54 50.3 30.3 50.58 30.07 50.86 29.84 51.14 29.61 51.42 29.39 51.7 29.16 51.98 28.94 52.26 28.72 52.54 28.51 52.82 28.3 53.1 28.08 53.38 27.87 53.66 27.67 53.94 27.46 54.22 27.26 54.5 27.06 54.78 26.86 55.06 26.66 55.34 26.47 55.62 26.28 55.9 26.09 56.18 25.9 56.46 25.71 56.74 25.53 57.02 25.34 57.3 25.16 57.58 24.98 57.86 24.81 58.14 24.63 58.42 24.46 58.7 24.29 58.98 24.12 59.26 23.95 59.54 23.79 59.82 23.62 60.1 23.46 60.38 23.3 60.66 23.14 60.94 22.98 61.22 22.83 61.5 22.67 61.78 22.52 62.06 22.37 62.34 22.22 62.62 22.07 62.9 21.93 63.18 21.78 63.46 21.64 63.74 21.5 64.02 21.36 64.3 21.22 64.58 21.08 64.86 20.95 65.14 20.81 65.42 20.68 65.7 20.55 65.98 20.42 66.26 20.29 66.54 20.16 66.82 20.04 67.1 19.91 67.38 19.79 67.66 19.67 67.94 19.55 68.22 19.43 68.5 19.31 68.78 19.2 69.06 19.08 69.34 18.97 69.62 18.86 69.9 18.74 70.18 18.63 70.46 18.53 70.74 18.42 71.02 18.31 71.3 18.21 71.58 18.1 71.86 18 72.14 17.9 72.42 17.8 72.7 17.7 72.98 17.6 73.26 17.5 73.54 17.41 73.82 17.31 74.1 17.22 74.38 17.12 74.66 17.03 74.94 16.94 75.22 16.85 75.5 16.76 75.78 16.68 76.06 16.59 76.34 16.5 76.62 16.42 76.9 16.33 77.18 16.25 77.46 16.17 77.74 16.09 78.02 16.01 78.3 15.93 78.58 15.85 78.86 15.77 79.14 15.7 79.42 15.62 79.7 15.55 79.98 15.48 80.26 15.4 80.54 15.33 80.82 15.26 81.1 15.19 81.38 15.12 81.66 15.05 81.94 14.99 82.22 14.92 82.5 14.85 82.78 14.79 83.06 14.72 83.34 14.66 83.62 14.6 83.9 14.54 84.18 14.48 84.46 14.42 84.74 14.36 85.02 14.3 85.3 14.24 85.58 14.18 85.86 14.13 86.14 14.07 86.42 14.02 86.69 13.96 86.97 13.91 87.25 13.86 87.53 13.8 87.81 13.75 88.09 13.7 88.37 13.65 88.65 13.6 88.93 13.55 89.21 13.51 89.49 13.46 89.77 13.41 90.05 13.37 90.33 13.32 90.61 13.28 90.89 13.23 91.17 13.19 91.45 13.15 91.73 13.11 92.01 13.07 92.29 13.02 92.57 12.98 92.85 12.95 93.13 12.91 93.41 12.87 93.69 12.83 93.97 12.79 94.25 12.76 94.53 12.72 94.81 12.69 95.09 12.65 95.37 12.62 95.65 12.59 95.93 12.55 96.21 12.52 96.49 12.49 96.77 12.46 97.05 12.43 97.33 12.4 97.61 12.37 97.89 12.34 98.17 12.31 98.45 12.28 98.73 12.26 99.01 12.23 99.29 12.2 99.57 12.18 99.85 12.15 100.13 12.13 100.41 12.11 100.69 12.08 100.97 12.06 101.25 12.04 101.53 12.02 101.81 12 102.09 11.98 102.37 11.95 102.65 11.94 102.93 11.92 103.21 11.9 103.49 11.88 103.77 11.86 104.05 11.85 104.33 11.83 104.61 11.81 104.89 11.8 105.17 11.78 105.45 11.77 105.73 11.75 106.01 11.74 106.29 11.73 106.57 11.71 106.85 11.7 107.13 11.69 107.41 11.68 107.69 11.67 107.97 11.66 108.25 11.65 108.53 11.64 108.81 11.63 109.09 11.62 109.37 11.62 109.65 11.61 109.93 11.6 110.21 11.6 110.49 11.59 110.77 11.59 111.05 11.58 111.33 11.58 111.61 11.57 111.89 11.57 112.17 11.57 112.45 11.56 112.73 11.56 113.01 11.56 113.29 11.56 113.57 11.56" id="img-08a23731-52" stroke="#E870DD" class="geometry color_x1"/>
        <path fill="none" d="M20.91,67.81 L 21.19 67.32 21.47 66.83 21.75 66.35 22.03 65.87 22.31 65.39 22.59 64.92 22.87 64.45 23.15 63.99 23.43 63.53 23.71 63.07 23.99 62.62 24.27 62.17 24.55 61.72 24.83 61.28 25.11 60.84 25.39 60.41 25.67 59.98 25.95 59.55 26.23 59.13 26.51 58.71 26.79 58.29 27.07 57.88 27.35 57.47 27.63 57.06 27.91 56.66 28.19 56.26 28.47 55.86 28.75 55.47 29.03 55.08 29.31 54.69 29.59 54.31 29.87 53.93 30.15 53.55 30.43 53.18 30.71 52.8 30.99 52.44 31.27 52.07 31.55 51.71 31.83 51.35 32.11 50.99 32.39 50.64 32.67 50.29 32.95 49.94 33.23 49.6 33.51 49.26 33.79 48.92 34.07 48.58 34.35 48.25 34.63 47.92 34.91 47.59 35.19 47.27 35.47 46.95 35.75 46.63 36.03 46.31 36.31 46 36.59 45.69 36.87 45.38 37.15 45.07 37.43 44.77 37.71 44.47 37.99 44.17 38.27 43.87 38.55 43.58 38.83 43.29 39.11 43 39.39 42.71 39.67 42.43 39.95 42.15 40.23 41.87 40.51 41.59 40.79 41.31 41.07 41.04 41.35 40.77 41.63 40.5 41.91 40.24 42.19 39.98 42.47 39.71 42.75 39.46 43.03 39.2 43.31 38.95 43.59 38.69 43.87 38.44 44.15 38.19 44.43 37.95 44.71 37.7 44.99 37.46 45.27 37.22 45.55 36.99 45.83 36.75 46.11 36.52 46.39 36.28 46.67 36.05 46.95 35.83 47.22 35.6 47.5 35.38 47.78 35.15 48.06 34.93 48.34 34.72 48.62 34.5 48.9 34.28 49.18 34.07 49.46 33.86 49.74 33.65 50.02 33.44 50.3 33.24 50.58 33.03 50.86 32.83 51.14 32.63 51.42 32.43 51.7 32.24 51.98 32.04 52.26 31.85 52.54 31.66 52.82 31.47 53.1 31.28 53.38 31.09 53.66 30.9 53.94 30.72 54.22 30.54 54.5 30.36 54.78 30.18 55.06 30 55.34 29.83 55.62 29.65 55.9 29.48 56.18 29.31 56.46 29.14 56.74 28.97 57.02 28.8 57.3 28.64 57.58 28.47 57.86 28.31 58.14 28.15 58.42 27.99 58.7 27.83 58.98 27.67 59.26 27.52 59.54 27.36 59.82 27.21 60.1 27.06 60.38 26.91 60.66 26.76 60.94 26.61 61.22 26.47 61.5 26.32 61.78 26.18 62.06 26.04 62.34 25.9 62.62 25.76 62.9 25.62 63.18 25.48 63.46 25.35 63.74 25.21 64.02 25.08 64.3 24.95 64.58 24.81 64.86 24.69 65.14 24.56 65.42 24.43 65.7 24.3 65.98 24.18 66.26 24.05 66.54 23.93 66.82 23.81 67.1 23.69 67.38 23.57 67.66 23.45 67.94 23.33 68.22 23.22 68.5 23.1 68.78 22.99 69.06 22.88 69.34 22.76 69.62 22.65 69.9 22.54 70.18 22.44 70.46 22.33 70.74 22.22 71.02 22.12 71.3 22.01 71.58 21.91 71.86 21.8 72.14 21.7 72.42 21.6 72.7 21.5 72.98 21.4 73.26 21.31 73.54 21.21 73.82 21.11 74.1 21.02 74.38 20.93 74.66 20.83 74.94 20.74 75.22 20.65 75.5 20.56 75.78 20.47 76.06 20.38 76.34 20.29 76.62 20.21 76.9 20.12 77.18 20.04 77.46 19.95 77.74 19.87 78.02 19.79 78.3 19.71 78.58 19.63 78.86 19.55 79.14 19.47 79.42 19.39 79.7 19.31 79.98 19.24 80.26 19.16 80.54 19.09 80.82 19.01 81.1 18.94 81.38 18.87 81.66 18.8 81.94 18.73 82.22 18.66 82.5 18.59 82.78 18.52 83.06 18.45 83.34 18.39 83.62 18.32 83.9 18.25 84.18 18.19 84.46 18.13 84.74 18.06 85.02 18 85.3 17.94 85.58 17.88 85.86 17.82 86.14 17.76 86.42 17.7 86.69 17.64 86.97 17.59 87.25 17.53 87.53 17.47 87.81 17.42 88.09 17.37 88.37 17.31 88.65 17.26 88.93 17.21 89.21 17.15 89.49 17.1 89.77 17.05 90.05 17 90.33 16.96 90.61 16.91 90.89 16.86 91.17 16.81 91.45 16.77 91.73 16.72 92.01 16.68 92.29 16.63 92.57 16.59 92.85 16.55 93.13 16.5 93.41 16.46 93.69 16.42 93.97 16.38 94.25 16.34 94.53 16.3 94.81 16.26 95.09 16.23 95.37 16.19 95.65 16.15 95.93 16.12 96.21 16.08 96.49 16.05 96.77 16.01 97.05 15.98 97.33 15.94 97.61 15.91 97.89 15.88 98.17 15.85 98.45 15.82 98.73 15.79 99.01 15.76 99.29 15.73 99.57 15.7 99.85 15.68 100.13 15.65 100.41 15.62 100.69 15.6 100.97 15.57 101.25 15.55 101.53 15.52 101.81 15.5 102.09 15.47 102.37 15.45 102.65 15.43 102.93 15.41 103.21 15.39 103.49 15.37 103.77 15.35 104.05 15.33 104.33 15.31 104.61 15.29 104.89 15.28 105.17 15.26 105.45 15.24 105.73 15.23 106.01 15.21 106.29 15.2 106.57 15.18 106.85 15.17 107.13 15.16 107.41 15.14 107.69 15.13 107.97 15.12 108.25 15.11 108.53 15.1 108.81 15.09 109.09 15.08 109.37 15.07 109.65 15.06 109.93 15.06 110.21 15.05 110.49 15.04 110.77 15.04 111.05 15.03 111.33 15.03 111.61 15.02 111.89 15.02 112.17 15.02 112.45 15.01 112.73 15.01 113.01 15.01 113.29 15.01 113.57 15.01" id="img-08a23731-53" stroke="#FF6765" class="geometry color_x3"/>
        <path fill="none" d="M20.91,77.61 L 21.19 77.1 21.47 76.58 21.75 76.07 22.03 75.57 22.31 75.06 22.59 74.57 22.87 74.07 23.15 73.58 23.43 73.09 23.71 72.61 23.99 72.13 24.27 71.66 24.55 71.18 24.83 70.71 25.11 70.25 25.39 69.79 25.67 69.33 25.95 68.87 26.23 68.42 26.51 67.97 26.79 67.53 27.07 67.09 27.35 66.65 27.63 66.22 27.91 65.79 28.19 65.36 28.47 64.93 28.75 64.51 29.03 64.09 29.31 63.68 29.59 63.27 29.87 62.86 30.15 62.45 30.43 62.05 30.71 61.65 30.99 61.25 31.27 60.86 31.55 60.47 31.83 60.08 32.11 59.7 32.39 59.32 32.67 58.94 32.95 58.56 33.23 58.19 33.51 57.82 33.79 57.45 34.07 57.09 34.35 56.72 34.63 56.37 34.91 56.01 35.19 55.66 35.47 55.3 35.75 54.96 36.03 54.61 36.31 54.27 36.59 53.93 36.87 53.59 37.15 53.26 37.43 52.92 37.71 52.59 37.99 52.27 38.27 51.94 38.55 51.62 38.83 51.3 39.11 50.98 39.39 50.67 39.67 50.36 39.95 50.05 40.23 49.74 40.51 49.43 40.79 49.13 41.07 48.83 41.35 48.53 41.63 48.24 41.91 47.94 42.19 47.65 42.47 47.36 42.75 47.08 43.03 46.79 43.31 46.51 43.59 46.23 43.87 45.95 44.15 45.67 44.43 45.4 44.71 45.13 44.99 44.86 45.27 44.59 45.55 44.33 45.83 44.06 46.11 43.8 46.39 43.54 46.67 43.29 46.95 43.03 47.22 42.78 47.5 42.53 47.78 42.28 48.06 42.03 48.34 41.79 48.62 41.54 48.9 41.3 49.18 41.06 49.46 40.83 49.74 40.59 50.02 40.36 50.3 40.13 50.58 39.9 50.86 39.67 51.14 39.44 51.42 39.22 51.7 38.99 51.98 38.77 52.26 38.55 52.54 38.34 52.82 38.12 53.1 37.91 53.38 37.7 53.66 37.49 53.94 37.28 54.22 37.07 54.5 36.86 54.78 36.66 55.06 36.46 55.34 36.26 55.62 36.06 55.9 35.86 56.18 35.67 56.46 35.47 56.74 35.28 57.02 35.09 57.3 34.9 57.58 34.71 57.86 34.53 58.14 34.34 58.42 34.16 58.7 33.98 58.98 33.8 59.26 33.62 59.54 33.44 59.82 33.26 60.1 33.09 60.38 32.92 60.66 32.75 60.94 32.58 61.22 32.41 61.5 32.24 61.78 32.07 62.06 31.91 62.34 31.75 62.62 31.59 62.9 31.43 63.18 31.27 63.46 31.11 63.74 30.95 64.02 30.8 64.3 30.65 64.58 30.49 64.86 30.34 65.14 30.19 65.42 30.05 65.7 29.9 65.98 29.75 66.26 29.61 66.54 29.47 66.82 29.32 67.1 29.18 67.38 29.04 67.66 28.91 67.94 28.77 68.22 28.63 68.5 28.5 68.78 28.36 69.06 28.23 69.34 28.1 69.62 27.97 69.9 27.84 70.18 27.72 70.46 27.59 70.74 27.46 71.02 27.34 71.3 27.22 71.58 27.1 71.86 26.97 72.14 26.86 72.42 26.74 72.7 26.62 72.98 26.5 73.26 26.39 73.54 26.27 73.82 26.16 74.1 26.05 74.38 25.94 74.66 25.83 74.94 25.72 75.22 25.61 75.5 25.51 75.78 25.4 76.06 25.29 76.34 25.19 76.62 25.09 76.9 24.99 77.18 24.89 77.46 24.79 77.74 24.69 78.02 24.59 78.3 24.49 78.58 24.4 78.86 24.3 79.14 24.21 79.42 24.12 79.7 24.03 79.98 23.93 80.26 23.84 80.54 23.76 80.82 23.67 81.1 23.58 81.38 23.49 81.66 23.41 81.94 23.32 82.22 23.24 82.5 23.16 82.78 23.08 83.06 23 83.34 22.92 83.62 22.84 83.9 22.76 84.18 22.68 84.46 22.6 84.74 22.53 85.02 22.45 85.3 22.38 85.58 22.31 85.86 22.24 86.14 22.16 86.42 22.09 86.69 22.02 86.97 21.96 87.25 21.89 87.53 21.82 87.81 21.75 88.09 21.69 88.37 21.62 88.65 21.56 88.93 21.5 89.21 21.44 89.49 21.37 89.77 21.31 90.05 21.25 90.33 21.19 90.61 21.14 90.89 21.08 91.17 21.02 91.45 20.97 91.73 20.91 92.01 20.86 92.29 20.8 92.57 20.75 92.85 20.7 93.13 20.65 93.41 20.6 93.69 20.55 93.97 20.5 94.25 20.45 94.53 20.4 94.81 20.36 95.09 20.31 95.37 20.27 95.65 20.22 95.93 20.18 96.21 20.13 96.49 20.09 96.77 20.05 97.05 20.01 97.33 19.97 97.61 19.93 97.89 19.89 98.17 19.85 98.45 19.82 98.73 19.78 99.01 19.74 99.29 19.71 99.57 19.67 99.85 19.64 100.13 19.61 100.41 19.58 100.69 19.54 100.97 19.51 101.25 19.48 101.53 19.45 101.81 19.42 102.09 19.4 102.37 19.37 102.65 19.34 102.93 19.32 103.21 19.29 103.49 19.27 103.77 19.24 104.05 19.22 104.33 19.2 104.61 19.17 104.89 19.15 105.17 19.13 105.45 19.11 105.73 19.09 106.01 19.08 106.29 19.06 106.57 19.04 106.85 19.02 107.13 19.01 107.41 18.99 107.69 18.98 107.97 18.96 108.25 18.95 108.53 18.94 108.81 18.93 109.09 18.92 109.37 18.9 109.65 18.89 109.93 18.89 110.21 18.88 110.49 18.87 110.77 18.86 111.05 18.86 111.33 18.85 111.61 18.84 111.89 18.84 112.17 18.84 112.45 18.83 112.73 18.83 113.01 18.83 113.29 18.83 113.57 18.83" id="img-08a23731-54" stroke="#FF6DAE" class="geometry color_x5"/>
      </g>
    </g>
  </g>
</g>
  <g class="guide ylabels" font-size="2.82" font-family="'PT Sans Caption','Helvetica Neue','Helvetica',sans-serif" fill="#6C606B" id="img-08a23731-55">
    <text x="17.63" y="80.31" text-anchor="end" dy="0.35em" id="img-08a23731-56">0.0</text>
    <text x="17.63" y="43.66" text-anchor="end" dy="0.35em" id="img-08a23731-57">0.5</text>
    <text x="17.63" y="7" text-anchor="end" dy="0.35em" id="img-08a23731-58">1.0</text>
  </g>
  <g font-size="3.88" font-family="'PT Sans','Helvetica Neue','Helvetica',sans-serif" fill="#564A55" stroke="#000000" stroke-opacity="0.000" id="img-08a23731-59">
    <text x="8.81" y="41.66" text-anchor="middle" dy="0.35em" transform="rotate(-90, 8.81, 43.66)" id="img-08a23731-60">SOC</text>
  </g>
</g>
<defs>
  <clipPath id="img-08a23731-29">
  <path d="M18.63,5 L 134.6 5 134.6 82.32 18.63 82.32" />
</clipPath>
</defs>
</svg>
